<svg width="329" height="228" viewBox="0 0 329 228" fill="none" xmlns="http://www.w3.org/2000/svg">
<g clip-path="url(#clip0_11_828)">
<path d="M212.73 51.6876C218.96 51.6876 224.01 46.4967 224.01 40.0935C224.01 33.6902 218.96 28.4994 212.73 28.4994C206.5 28.4994 201.45 33.6902 201.45 40.0935C201.45 46.4967 206.5 51.6876 212.73 51.6876Z" fill="#F2F2F2"/>
<path d="M256.145 121.395L63.1011 0L-3.20125e-06 106.007L193.044 227.402L256.145 121.395Z" fill="#F2F2F2"/>
<path d="M238.992 155.02C237.229 150.853 234.515 147.194 229.086 144.114C226.281 142.484 223.267 141.264 220.133 140.491C222.241 139.484 224.181 138.139 225.879 136.505C228.374 134.213 230.266 131.309 231.378 128.064C232.401 124.766 232.819 121.301 232.611 117.846C232.224 111.759 231.06 105.854 227.958 101.615C224.856 97.3755 220.485 94.1146 214.704 91.832C210.263 90.0929 205.715 89.006 198.665 88.6074V65.4555L184.565 74.5134V88.6437H173.285V73.7888L158.832 65.4555V88.6437H128.129L137.999 106.035C141.048 106.038 143.114 106.328 144.168 106.868C145.152 107.301 145.961 108.069 146.459 109.042C146.918 109.948 147.129 112.085 147.129 115.383V178.135C147.129 181.396 146.918 183.498 146.459 184.44C146.001 185.382 145.754 186.215 144.661 186.722C143.569 187.23 143.533 187.193 140.502 187.193H140.467L128.129 204.585H158.797V227.773H173.25V204.585H184.53V227.773H198.63V204.44C207.795 203.969 214.316 202.737 219.569 200.708C226.372 198.099 231.589 194.295 235.326 189.295C239.062 184.295 240.578 176.65 240.895 170.744C241.142 165.491 240.578 158.715 238.992 155.02ZM173.25 108.209H173.253V107.727H183.109C188.654 107.727 207.132 105.828 207.439 121.339C207.749 136.85 183.109 136.216 183.109 136.216H173.253V135.02H173.25V108.209ZM173.25 152.411H184.53C186.821 152.411 194.703 152.77 197.572 152.904C198.742 152.948 199.9 153.16 201.013 153.534C201.418 153.676 201.802 153.835 202.218 154.013C203.957 154.59 205.597 155.443 207.079 156.542C208.046 157.197 208.896 158.018 209.593 158.969C209.895 159.398 210.173 159.844 210.425 160.306C211.092 161.467 211.588 162.723 211.895 164.034C212.231 165.3 212.405 166.606 212.413 167.918C212.413 170.741 211.905 173.078 210.654 175.056C208.958 177.976 206.177 180.045 203.047 181.505C194.953 185.288 184.53 185.019 184.53 185.019H173.25V152.411Z" fill="#595FF7"/>
<path opacity="0.3" d="M215.783 40.5813C215.676 40.3098 215.479 40.0857 215.227 39.9484C215.071 39.854 214.902 39.7832 214.725 39.7381C214.844 39.6793 214.953 39.6012 215.048 39.5068C215.188 39.3723 215.294 39.204 215.356 39.0169C215.413 38.8251 215.437 38.6242 215.425 38.4239C215.424 38.0912 215.334 37.7653 215.164 37.4819C214.975 37.2229 214.717 37.0258 214.421 36.9141C214.134 36.7997 213.83 36.7364 213.522 36.727V35.3834L212.732 35.909V36.7291H212.099V35.867L211.289 35.3834V36.7291H209.568L210.121 37.7384C210.238 37.7301 210.356 37.7466 210.467 37.7868C210.523 37.8124 210.568 37.857 210.595 37.9129C210.629 38.0323 210.642 38.1569 210.633 38.2809V41.9228C210.641 42.0461 210.629 42.17 210.595 42.2887C210.57 42.3434 210.556 42.3917 210.495 42.4212C210.433 42.4506 210.431 42.4485 210.261 42.4485H210.259L209.568 43.4578H211.287V44.8035H212.097V43.4578H212.73V44.8035H213.52V43.4494C213.92 43.4421 214.316 43.369 214.694 43.2328C215.044 43.1041 215.351 42.8741 215.577 42.5705C215.774 42.2474 215.882 41.8752 215.889 41.4939C215.91 41.1855 215.874 40.8758 215.783 40.5813ZM212.097 37.8646H212.097V37.8366H212.65C212.961 37.8366 213.997 37.7264 214.014 38.6266C214.031 39.5268 212.65 39.49 212.65 39.49H212.097V39.4206H212.097V37.8646ZM212.097 40.4299H212.73C212.858 40.4299 213.3 40.4507 213.461 40.4585C213.526 40.4611 213.591 40.4734 213.654 40.4951C213.676 40.5033 213.698 40.5126 213.721 40.5229C213.819 40.5566 213.911 40.6061 213.994 40.6696C214.048 40.708 214.096 40.7556 214.135 40.8105C214.194 40.8997 214.238 40.9993 214.264 41.1045C214.282 41.1781 214.292 41.2538 214.293 41.3299C214.299 41.4748 214.265 41.6186 214.194 41.7441C214.093 41.9109 213.944 42.0415 213.768 42.1184C213.438 42.257 213.085 42.3263 212.73 42.3224H212.097V40.4299Z" fill="#6C63FF"/>
<path d="M281.345 172.387C283.628 172.387 285.479 170.484 285.479 168.137C285.479 165.79 283.628 163.887 281.345 163.887C279.061 163.887 277.21 165.79 277.21 168.137C277.21 170.484 279.061 172.387 281.345 172.387Z" fill="#FF6584"/>
<path d="M313.939 214.398V166.011" stroke="#3F3D56" stroke-width="2" stroke-miterlimit="10"/>
<path d="M313.939 172.853C317.616 172.853 320.597 169.79 320.597 166.011C320.597 162.232 317.616 159.168 313.939 159.168C310.262 159.168 307.282 162.232 307.282 166.011C307.282 169.79 310.262 172.853 313.939 172.853Z" fill="#3F3D56"/>
<path d="M300.828 193.103C291.212 208.26 293.846 227.538 293.846 227.538C293.846 227.538 312.072 222.242 321.688 207.084C331.305 191.927 328.67 172.649 328.67 172.649C328.67 172.649 310.444 177.946 300.828 193.103Z" fill="#3F3D56"/>
<path d="M293.795 227.362C293.795 227.362 293.561 227.324 293.13 227.234C292.787 227.162 292.314 227.06 291.736 226.919C286.571 225.668 272.839 221.436 263.861 210.312C252.624 196.382 253.097 176.921 253.097 176.921C253.097 176.921 270.279 179.79 281.6 192.299C282.09 192.837 282.568 193.394 283.032 193.971C292.809 206.091 293.721 222.399 293.793 226.43C293.803 227.034 293.795 227.362 293.795 227.362Z" fill="#6C63FF"/>
<path d="M286.865 193.103C296.481 208.26 293.847 227.538 293.847 227.538C293.847 227.538 275.621 222.242 266.005 207.084C256.388 191.927 259.023 172.649 259.023 172.649C259.023 172.649 277.249 177.946 286.865 193.103Z" stroke="#3F3D56" stroke-width="2" stroke-miterlimit="10"/>
<path opacity="0.1" d="M293.793 226.43C293.539 226.745 293.315 227.014 293.13 227.234C292.722 227.713 292.49 227.964 292.49 227.964C292.49 227.964 292.209 227.6 291.736 226.919C289.138 223.197 280.783 209.964 281.428 194.677C281.463 193.876 281.52 193.083 281.6 192.299C282.091 192.837 282.568 193.394 283.032 193.971C292.809 206.091 293.721 222.399 293.793 226.43Z" fill="black"/>
<path d="M308.051 195.783C307.291 213.861 294.235 227.964 294.235 227.964C294.235 227.964 282.41 212.756 283.171 194.678C283.931 176.599 296.987 162.497 296.987 162.497C296.987 162.497 308.811 177.705 308.051 195.783Z" fill="#6C63FF"/>
<path d="M294.234 227.452L297.105 163.234" stroke="#3F3D56" stroke-width="2" stroke-miterlimit="10"/>
<path d="M20.259 227.522H318.485" stroke="#3F3D56" stroke-width="2" stroke-miterlimit="10"/>
<path d="M83.5984 149.207C91.9172 149.207 98.6609 142.275 98.6609 133.725C98.6609 125.175 91.9172 118.243 83.5984 118.243C75.2797 118.243 68.536 125.175 68.536 133.725C68.536 142.275 75.2797 149.207 83.5984 149.207Z" fill="#6C63FF"/>
<path d="M57.9962 185.642C66.3149 185.642 73.0586 178.711 73.0586 170.161C73.0586 161.61 66.3149 154.679 57.9962 154.679C49.6774 154.679 42.9337 161.61 42.9337 170.161C42.9337 178.711 49.6774 185.642 57.9962 185.642Z" fill="#6C63FF"/>
<path d="M26.4857 214.74C34.8044 214.74 41.5481 207.809 41.5481 199.259C41.5481 190.709 34.8044 183.777 26.4857 183.777C18.1669 183.777 11.4232 190.709 11.4232 199.259C11.4232 207.809 18.1669 214.74 26.4857 214.74Z" fill="#6C63FF"/>
<path d="M26.4723 227.257V199.174" stroke="#3F3D56" stroke-width="2" stroke-miterlimit="10"/>
<path d="M26.4723 203.145C28.6062 203.145 30.3361 201.367 30.3361 199.174C30.3361 196.98 28.6062 195.202 26.4723 195.202C24.3383 195.202 22.6085 196.98 22.6085 199.174C22.6085 201.367 24.3383 203.145 26.4723 203.145Z" fill="#3F3D56"/>
<path d="M26.4722 216.482C26.4722 216.482 25.9203 204.28 14.6048 205.698L26.4722 216.482Z" fill="#3F3D56"/>
<path d="M83.6078 227.454V133.782" stroke="#3F3D56" stroke-width="2" stroke-miterlimit="10"/>
<path d="M83.6079 137.709C85.7418 137.709 87.4717 135.931 87.4717 133.737C87.4717 131.544 85.7418 129.766 83.6079 129.766C81.474 129.766 79.7441 131.544 79.7441 133.737C79.7441 135.931 81.474 137.709 83.6079 137.709Z" fill="#3F3D56"/>
<path d="M71.7404 205.481C73.8744 205.481 75.6042 203.703 75.6042 201.51C75.6042 199.316 73.8744 197.538 71.7404 197.538C69.6065 197.538 67.8766 199.316 67.8766 201.51C67.8766 203.703 69.6065 205.481 71.7404 205.481Z" fill="#3F3D56"/>
<path d="M83.6079 154.023C83.6079 154.023 83.0559 141.821 71.7404 143.239L83.6079 154.023Z" fill="#3F3D56"/>
<path d="M83.6079 188.615C83.6079 188.615 83.0559 176.413 71.7404 177.831L83.6079 188.615Z" fill="#3F3D56"/>
<path d="M83.6079 226.362C83.6079 226.362 86.0918 202.644 71.7404 201.51" stroke="#3F3D56" stroke-width="2" stroke-miterlimit="10"/>
<path d="M95.477 205.481C97.6109 205.481 99.3408 203.703 99.3408 201.51C99.3408 199.316 97.6109 197.538 95.477 197.538C93.343 197.538 91.6132 199.316 91.6132 201.51C91.6132 203.703 93.343 205.481 95.477 205.481Z" fill="#3F3D56"/>
<path d="M83.6096 226.362C83.6096 226.362 81.1257 202.644 95.477 201.51" stroke="#3F3D56" stroke-width="2" stroke-miterlimit="10"/>
<path d="M95.7124 168.228C97.8463 168.228 99.5762 166.45 99.5762 164.257C99.5762 162.063 97.8463 160.285 95.7124 160.285C93.5785 160.285 91.8486 162.063 91.8486 164.257C91.8486 166.45 93.5785 168.228 95.7124 168.228Z" fill="#3F3D56"/>
<path d="M83.8449 187.844C83.8449 187.844 81.361 165.391 95.7123 164.257" stroke="#3F3D56" stroke-width="2" stroke-miterlimit="10"/>
<path d="M58.0099 227.322V170.143" stroke="#3F3D56" stroke-width="2" stroke-miterlimit="10"/>
<path d="M58.0099 174.115C60.1438 174.115 61.8737 172.337 61.8737 170.143C61.8737 167.95 60.1438 166.172 58.0099 166.172C55.876 166.172 54.1461 167.95 54.1461 170.143C54.1461 172.337 55.876 174.115 58.0099 174.115Z" fill="#3F3D56"/>
<path d="M58.0099 186.317C58.0099 186.317 57.4579 174.115 46.1425 175.533L58.0099 186.317Z" fill="#3F3D56"/>
<path d="M58.0099 226.23C58.0099 226.23 60.4938 202.765 46.1425 201.63" stroke="#3F3D56" stroke-width="2" stroke-miterlimit="10"/>
<path d="M46.1424 205.602C48.2764 205.602 50.0062 203.824 50.0062 201.63C50.0062 199.437 48.2764 197.659 46.1424 197.659C44.0085 197.659 42.2786 199.437 42.2786 201.63C42.2786 203.824 44.0085 205.602 46.1424 205.602Z" fill="#3F3D56"/>
<path d="M270.188 140.455C273.693 140.455 276.533 137.535 276.533 133.933C276.533 130.331 273.693 127.411 270.188 127.411C266.684 127.411 263.843 130.331 263.843 133.933C263.843 137.535 266.684 140.455 270.188 140.455Z" fill="#F2F2F2"/>
<path opacity="0.1" d="M203.047 181.505C194.953 185.288 184.53 185.019 184.53 185.019H173.25V182.806C177.846 181.487 184.202 180.672 191.227 180.672C195.182 180.657 199.132 180.936 203.047 181.505Z" fill="black"/>
<path opacity="0.1" d="M216.608 187.918C216.608 191.922 205.243 195.164 191.227 195.164C177.212 195.164 165.847 191.922 165.847 187.918C165.847 185.922 168.674 184.114 173.25 182.806V185.019H184.53C184.53 185.019 194.953 185.288 203.047 181.505C211.109 182.715 216.608 185.132 216.608 187.918Z" fill="black"/>
<path d="M194.469 142.799H183.67V153.918H194.469V142.799Z" fill="#2F2E41"/>
<path d="M187.686 150.662C187.686 150.662 188.58 153.878 187.016 154.107C186.045 154.263 185.125 154.657 184.334 155.256L187.239 159.16H192.602L195.954 155.715C195.954 155.715 191.485 152.27 192.379 150.203C193.273 148.136 187.686 150.662 187.686 150.662Z" fill="#FFB9B9"/>
<path opacity="0.1" d="M187.686 150.662C187.686 150.662 188.58 153.878 187.016 154.107C186.045 154.263 185.125 154.657 184.334 155.256L187.239 159.16H192.602L195.954 155.715C195.954 155.715 191.485 152.27 192.379 150.203C193.273 148.136 187.686 150.662 187.686 150.662Z" fill="black"/>
<path d="M189.027 190.627L194.167 192.464L197.742 192.694L197.518 189.478L190.144 187.237L189.027 190.627Z" fill="#FFB9B9"/>
<path d="M195.619 189.938C195.619 189.938 195.619 193.153 196.066 193.153C196.513 193.153 202.546 192.464 204.334 193.153C206.122 193.843 208.803 191.316 207.462 189.938C206.122 188.56 203.935 186.493 202.57 186.952C201.205 187.411 195.619 188.56 195.619 188.56L195.619 189.938Z" fill="#2F2E41"/>
<path d="M179.194 186.952C179.194 186.952 176.513 192.464 178.3 192.924C180.088 193.383 182.099 192.694 182.323 192.464C182.546 192.235 185.675 191.316 186.122 191.775C186.569 192.235 186.569 189.938 186.569 189.938L179.194 186.952Z" fill="#2F2E41"/>
<path d="M181.429 179.372C181.429 179.372 177.183 185.344 180.312 186.952C183.44 188.56 198.412 188.56 199.529 186.952C200.647 185.344 201.094 180.291 199.529 179.832C197.965 179.372 181.429 179.372 181.429 179.372Z" fill="#2F2E41"/>
<path opacity="0.2" d="M181.429 179.372C181.429 179.372 177.183 185.344 180.312 186.952C183.44 188.56 198.412 188.56 199.529 186.952C200.647 185.344 201.094 180.291 199.529 179.832C197.965 179.372 181.429 179.372 181.429 179.372Z" fill="black"/>
<path d="M189.474 152.27C192.312 152.27 194.613 149.905 194.613 146.987C194.613 144.07 192.312 141.704 189.474 141.704C186.635 141.704 184.334 144.07 184.334 146.987C184.334 149.905 186.635 152.27 189.474 152.27Z" fill="#FFB9B9"/>
<path d="M181.429 155.256L185.898 154.337C185.898 154.337 187.016 158.012 190.591 157.323C194.166 156.634 195.06 154.337 195.06 154.337C195.06 154.337 197.742 155.485 197.965 155.485C198.189 155.485 201.094 156.634 201.094 157.323C201.094 158.012 197.742 164.902 197.742 164.902L198.189 177.305L181.652 176.846L182.77 164.673L181.429 155.256Z" fill="#6C63FF"/>
<path d="M178.971 161.228C178.971 161.228 177.63 173.401 178.524 174.319C179.418 175.238 182.993 177.765 182.993 177.765V175.009L181.206 171.563L182.993 163.524L178.971 161.228Z" fill="#FFB9B9"/>
<path d="M202.099 160.883C202.099 160.883 201.317 173.401 201.317 173.86C201.317 174.319 199.306 175.927 198.636 175.927C197.965 175.927 197.518 174.779 197.518 174.779L199.083 172.941L197.965 163.524L202.099 160.883Z" fill="#FFB9B9"/>
<path d="M199.976 178.454C199.976 178.454 210.032 172.712 210.256 178.454C210.479 184.196 205.116 186.493 205.116 186.493C205.116 186.493 191.261 190.763 190.703 189.202C190.144 187.641 189.027 185.115 189.921 184.885C190.814 184.655 191.932 184.196 192.379 184.655C192.826 185.115 198.412 181.21 198.412 181.21L199.976 178.454Z" fill="#2F2E41"/>
<path opacity="0.2" d="M204.669 177.765C204.669 177.765 202.658 178.683 201.988 179.372C201.317 180.062 198.412 181.21 198.412 181.21" stroke="black" stroke-width="2" stroke-miterlimit="10"/>
<path d="M182.77 155.715L181.429 155.256C181.429 155.256 176.513 160.538 178.077 161.917C179.641 163.295 180.535 163.754 180.982 164.213C181.429 164.673 183.664 164.902 183.664 164.902L182.77 155.715Z" fill="#6C63FF"/>
<path d="M199.083 156.864L201.094 157.323C201.094 157.323 202.658 160.768 203.105 161.228C203.552 161.687 202.435 161.457 201.764 162.376C201.094 163.295 200.423 164.902 199.083 164.902C197.742 164.902 195.954 162.606 195.954 162.606L199.083 156.864Z" fill="#6C63FF"/>
<path d="M181.876 180.521C181.876 180.521 173.384 174.319 170.479 178.913C167.574 183.507 182.993 189.708 185.228 190.627C187.462 191.546 189.474 192.464 189.474 192.464C189.474 192.464 191.485 187.411 191.485 186.493C191.485 185.574 189.921 185.574 189.474 185.574C189.027 185.574 187.016 185.115 186.569 184.425C186.122 183.736 181.876 180.521 181.876 180.521Z" fill="#2F2E41"/>
<path opacity="0.2" d="M177.183 178.913C177.183 178.913 179.418 180.751 181.429 181.21C183.44 181.669 184.111 182.818 184.111 182.818" stroke="black" stroke-width="2" stroke-miterlimit="10"/>
<path d="M180.334 170.277L180.513 180.002C180.519 180.323 180.648 180.629 180.872 180.853C181.097 181.076 181.398 181.2 181.71 181.196L199.318 180.993C199.618 180.99 199.905 180.869 200.122 180.656C200.339 180.443 200.47 180.154 200.487 179.846L201.022 170.324C201.031 170.159 201.007 169.993 200.952 169.837C200.897 169.682 200.811 169.539 200.7 169.418C200.59 169.298 200.456 169.202 200.308 169.136C200.16 169.071 200 169.037 199.839 169.037H181.519C181.361 169.037 181.205 169.069 181.06 169.132C180.915 169.194 180.783 169.286 180.673 169.401C180.563 169.517 180.476 169.654 180.418 169.804C180.36 169.955 180.331 170.115 180.334 170.277Z" fill="#575A89"/>
<path d="M178.298 155.314C178.777 154.226 179.422 153.205 179.729 152.054C180.097 150.673 179.954 149.213 179.91 147.782C179.84 146.517 179.945 145.248 180.221 144.013C180.502 142.772 181.133 141.644 182.034 140.769C184.376 138.621 188.662 138.466 191.521 139.361C192.648 139.713 193.849 140.385 194.129 141.562C194.171 141.739 194.19 141.922 194.237 142.099C194.471 142.975 195.343 143.529 195.658 144.378C196.065 145.476 195.437 146.67 195.355 147.842C195.26 149.21 195.914 150.503 196.559 151.704C196.942 152.418 197.341 153.179 197.303 153.993C197.271 154.439 197.139 154.871 196.918 155.255C196.507 155.952 195.931 156.53 195.243 156.935C194.555 157.341 193.778 157.56 192.985 157.572C192.47 157.614 191.955 157.489 191.512 157.215C190.815 156.721 190.61 155.726 190.756 154.868C190.901 154.01 191.325 153.234 191.657 152.433C191.758 152.187 191.85 151.937 191.935 151.684C192.965 151.094 193.758 150.148 194.175 149.015C194.592 147.881 194.606 146.633 194.214 145.49C193.823 144.347 193.051 143.382 192.035 142.768C191.019 142.153 189.824 141.927 188.662 142.129C187.499 142.332 186.444 142.95 185.682 143.875C184.92 144.8 184.5 145.972 184.497 147.184C184.494 148.396 184.908 149.57 185.666 150.498C186.423 151.427 187.475 152.051 188.637 152.26C188.887 153.556 188.773 154.899 188.309 156.131C187.886 157.133 187.356 158.084 186.727 158.965C186.47 159.417 186.127 159.811 185.72 160.124C185.451 160.288 185.162 160.414 184.861 160.501C183.599 160.918 182.27 161.254 180.957 161.066C179.643 160.879 178.343 160.064 177.895 158.782C177.503 157.658 177.818 156.401 178.298 155.314Z" fill="#2F2E41"/>
<path d="M189.225 147.198C192.237 147.198 194.679 145.776 194.679 144.021C194.679 142.266 192.237 140.844 189.225 140.844C186.212 140.844 183.77 142.266 183.77 144.021C183.77 145.776 186.212 147.198 189.225 147.198Z" fill="#2F2E41"/>
<path opacity="0.3" d="M272.56 134.312C272.477 134.101 272.325 133.927 272.129 133.82C272.007 133.747 271.876 133.692 271.739 133.657C271.831 133.611 271.916 133.551 271.989 133.477C272.099 133.373 272.181 133.242 272.229 133.096C272.273 132.947 272.292 132.791 272.282 132.636C272.282 132.377 272.212 132.124 272.08 131.904C271.933 131.702 271.732 131.549 271.502 131.463C271.279 131.374 271.043 131.324 270.804 131.317V130.273L270.189 130.681V131.319H269.698V130.649L269.069 130.273V131.319H267.731L268.161 132.103C268.252 132.097 268.344 132.109 268.43 132.141C268.473 132.161 268.508 132.195 268.53 132.239C268.556 132.331 268.566 132.428 268.559 132.525V135.355C268.565 135.45 268.556 135.547 268.53 135.639C268.51 135.681 268.499 135.719 268.451 135.742C268.404 135.765 268.402 135.763 268.27 135.763H268.269L267.731 136.547H269.067V137.593H269.697V136.547H270.188V137.593H270.802V136.541C271.113 136.535 271.421 136.478 271.714 136.373C271.987 136.273 272.225 136.094 272.401 135.858C272.554 135.607 272.638 135.318 272.643 135.021C272.66 134.782 272.631 134.541 272.56 134.312ZM269.697 132.201H269.697V132.179H270.126C270.368 132.179 271.173 132.094 271.186 132.793C271.199 133.493 270.126 133.464 270.126 133.464H269.697V133.41H269.697V132.201ZM269.697 134.194H270.188C270.288 134.194 270.631 134.211 270.756 134.217C270.807 134.219 270.858 134.228 270.906 134.245C270.924 134.252 270.94 134.259 270.959 134.267C271.035 134.293 271.106 134.331 271.17 134.381C271.213 134.411 271.25 134.448 271.28 134.49C271.326 134.56 271.36 134.637 271.38 134.719C271.395 134.776 271.402 134.835 271.403 134.894C271.408 135.006 271.381 135.118 271.326 135.216C271.247 135.345 271.131 135.447 270.995 135.507C270.739 135.614 270.464 135.668 270.188 135.665H269.697V134.194Z" fill="#6C63FF"/>
<path d="M22.7301 163.281C26.2344 163.281 29.0752 160.361 29.0752 156.759C29.0752 153.157 26.2344 150.237 22.7301 150.237C19.2259 150.237 16.3851 153.157 16.3851 156.759C16.3851 160.361 19.2259 163.281 22.7301 163.281Z" fill="#F2F2F2"/>
<path opacity="0.3" d="M25.1022 157.138C25.0191 156.927 24.8663 156.753 24.6707 156.646C24.5489 156.573 24.4176 156.518 24.2807 156.483C24.3729 156.437 24.4574 156.376 24.5309 156.303C24.6403 156.199 24.7226 156.068 24.7705 155.922C24.8151 155.773 24.8333 155.617 24.8242 155.462C24.8234 155.203 24.7533 154.95 24.6215 154.73C24.4745 154.528 24.274 154.375 24.0442 154.288C23.821 154.199 23.5847 154.15 23.3455 154.143V153.099L22.7312 153.507V154.145H22.2399V153.475L21.6103 153.099V154.145H20.2728L20.7028 154.929C20.7939 154.922 20.8853 154.935 20.9715 154.966C21.0147 154.986 21.05 155.021 21.0713 155.064C21.0975 155.157 21.1074 155.254 21.1005 155.35V158.18C21.1072 158.276 21.0973 158.372 21.0713 158.465C21.0513 158.507 21.0406 158.545 20.993 158.568C20.9454 158.591 20.9438 158.589 20.8118 158.589H20.8103L20.2728 159.373H21.6088V160.419H22.2383V159.373H22.7297V160.419H23.3439V159.367C23.6548 159.361 23.9627 159.304 24.2561 159.198C24.5284 159.098 24.7667 158.92 24.9425 158.684C25.0957 158.433 25.1796 158.143 25.1851 157.847C25.2013 157.607 25.1731 157.367 25.1022 157.138ZM22.2383 155.027H22.2385V155.005H22.6678C22.9094 155.005 23.7143 154.92 23.7277 155.619C23.7412 156.319 22.6678 156.29 22.6678 156.29H22.2385V156.236H22.2383L22.2383 155.027ZM22.2383 157.02H22.7297C22.8295 157.02 23.1729 157.037 23.2979 157.043C23.3489 157.045 23.3994 157.054 23.4478 157.071C23.4654 157.077 23.4822 157.085 23.5003 157.093C23.5763 157.119 23.6478 157.157 23.712 157.207C23.7544 157.236 23.7914 157.273 23.8215 157.316C23.8681 157.385 23.902 157.463 23.9218 157.545C23.9364 157.602 23.944 157.661 23.9444 157.72C23.9494 157.832 23.9228 157.944 23.8677 158.042C23.7889 158.171 23.6732 158.273 23.5364 158.332C23.2805 158.44 23.0062 158.494 22.7297 158.491H22.2383L22.2383 157.02Z" fill="#6C63FF"/>
</g>
<defs>
<clipPath id="clip0_11_828">
<rect width="329" height="228" fill="white"/>
</clipPath>
</defs>
</svg>
