<svg width="203" height="137" viewBox="0 0 203 137" fill="none" xmlns="http://www.w3.org/2000/svg">
<g clip-path="url(#clip0_11_575)">
<path d="M191.873 137L192.104 136.607C189.005 135.066 185.147 133.148 183.132 130C181.146 126.897 181.101 122.683 183.016 119.004C184.645 115.872 187.638 113.066 191.671 110.889C192.466 110.46 193.302 110.053 194.109 109.659C196.061 108.708 198.08 107.725 199.744 106.329C202.037 104.407 203.771 101.182 202.478 98.3093C202.053 97.3923 201.357 96.6033 200.468 96.0319C199.58 95.4605 198.535 95.1295 197.453 95.0765L197.425 95.5227C198.417 95.5711 199.374 95.8741 200.188 96.3974C201.002 96.9207 201.64 97.6432 202.03 98.4831C203.232 101.153 201.584 104.182 199.417 105.999C197.798 107.356 195.807 108.326 193.882 109.265C193.069 109.66 192.229 110.07 191.425 110.504C187.308 112.726 184.248 115.598 182.577 118.811C180.594 122.623 180.646 126.997 182.713 130.227C184.797 133.482 188.72 135.433 191.873 137Z" fill="#F1F1F1"/>
<path d="M194.372 97.432C196.721 97.432 198.625 96.5816 198.625 95.5326C198.625 94.4836 196.721 93.6332 194.372 93.6332C192.023 93.6332 190.118 94.4836 190.118 95.5326C190.118 96.5816 192.023 97.432 194.372 97.432Z" fill="#F1F1F1"/>
<path d="M190.969 109.945C193.318 109.945 195.223 109.095 195.223 108.046C195.223 106.997 193.318 106.147 190.969 106.147C188.62 106.147 186.716 106.997 186.716 108.046C186.716 109.095 188.62 109.945 190.969 109.945Z" fill="#F1F1F1"/>
<path d="M198.747 111.957C201.096 111.957 203 111.106 203 110.057C203 109.008 201.096 108.158 198.747 108.158C196.398 108.158 194.493 109.008 194.493 110.057C194.493 111.106 196.398 111.957 198.747 111.957Z" fill="#F1F1F1"/>
<path d="M186.594 122.459C188.943 122.459 190.848 121.609 190.848 120.56C190.848 119.511 188.943 118.66 186.594 118.66C184.245 118.66 182.341 119.511 182.341 120.56C182.341 121.609 184.245 122.459 186.594 122.459Z" fill="#F1F1F1"/>
<path d="M178.087 122.459C180.436 122.459 182.341 121.609 182.341 120.56C182.341 119.511 180.436 118.66 178.087 118.66C175.738 118.66 173.834 119.511 173.834 120.56C173.834 121.609 175.738 122.459 178.087 122.459Z" fill="#F1F1F1"/>
<path d="M33.3676 98.2049H18.2754C17.8667 98.2045 17.4749 98.0551 17.1859 97.7894C16.8969 97.5237 16.7344 97.1635 16.7339 96.7878V51.0693C16.7344 50.6936 16.8969 50.3334 17.1859 50.0677C17.4749 49.8021 17.8667 49.6526 18.2754 49.6522H33.3676C33.7763 49.6526 34.1681 49.8021 34.4571 50.0677C34.7461 50.3334 34.9087 50.6936 34.9092 51.0693V96.7878C34.9087 97.1635 34.7461 97.5237 34.4571 97.7894C34.1681 98.0551 33.7763 98.2045 33.3676 98.2049Z" fill="#6C63FF"/>
<path d="M60.8901 98.2049H45.7979C45.3892 98.2045 44.9974 98.0551 44.7084 97.7894C44.4194 97.5237 44.2568 97.1635 44.2563 96.7878V32.9272C44.2568 32.5514 44.4194 32.1912 44.7084 31.9256C44.9974 31.6599 45.3892 31.5105 45.7979 31.51H60.8901C61.2988 31.5105 61.6906 31.6599 61.9796 31.9256C62.2686 32.1912 62.4311 32.5514 62.4316 32.9272V96.7878C62.4311 97.1635 62.2686 97.5237 61.9796 97.7894C61.6906 98.0551 61.2988 98.2045 60.8901 98.2049Z" fill="#6C63FF"/>
<path d="M88.4128 98.2049H73.3206C72.9119 98.2045 72.5201 98.0551 72.2311 97.7894C71.9421 97.5237 71.7795 97.1635 71.7791 96.7878V51.0693C71.7795 50.6936 71.9421 50.3334 72.2311 50.0677C72.5201 49.8021 72.9119 49.6526 73.3206 49.6522H88.4128C88.8215 49.6526 89.2133 49.8021 89.5023 50.0677C89.7913 50.3334 89.9538 50.6936 89.9543 51.0693V96.7878C89.9538 97.1635 89.7913 97.5237 89.5023 97.7894C89.2133 98.0551 88.8215 98.2045 88.4128 98.2049Z" fill="#6C63FF"/>
<path d="M115.935 98.2049H100.843C100.444 98.2128 100.057 98.0749 99.7682 97.8213C99.4793 97.5677 99.3115 97.2191 99.3015 96.852V25.7016C99.3115 25.3345 99.4793 24.9859 99.7682 24.7323C100.057 24.4787 100.444 24.3408 100.843 24.3487H115.935C116.335 24.3408 116.721 24.4787 117.01 24.7323C117.299 24.9859 117.467 25.3345 117.477 25.7016V96.852C117.467 97.2191 117.299 97.5677 117.01 97.8213C116.721 98.0749 116.335 98.2128 115.935 98.2049Z" fill="#6C63FF"/>
<path d="M143.458 98.2049H128.366C127.957 98.2045 127.565 98.0551 127.276 97.7894C126.987 97.5237 126.825 97.1635 126.824 96.7878V12.8753C126.825 12.4996 126.987 12.1394 127.276 11.8737C127.565 11.608 127.957 11.4586 128.366 11.4582H143.458C143.867 11.4586 144.258 11.608 144.547 11.8737C144.836 12.1394 144.999 12.4996 145 12.8753V96.7878C144.999 97.1635 144.836 97.5237 144.547 97.7894C144.258 98.0551 143.867 98.2045 143.458 98.2049Z" fill="#6C63FF"/>
<path d="M25.8216 43.9231C27.5424 43.9231 28.9373 42.6406 28.9373 41.0586C28.9373 39.4765 27.5424 38.194 25.8216 38.194C24.1008 38.194 22.7058 39.4765 22.7058 41.0586C22.7058 42.6406 24.1008 43.9231 25.8216 43.9231Z" fill="#3F3D56"/>
<path d="M53.344 25.3035C55.0648 25.3035 56.4598 24.021 56.4598 22.439C56.4598 20.8569 55.0648 19.5744 53.344 19.5744C51.6232 19.5744 50.2283 20.8569 50.2283 22.439C50.2283 24.021 51.6232 25.3035 53.344 25.3035Z" fill="#3F3D56"/>
<path d="M80.8667 43.9231C82.5875 43.9231 83.9825 42.6406 83.9825 41.0586C83.9825 39.4765 82.5875 38.194 80.8667 38.194C79.1459 38.194 77.751 39.4765 77.751 41.0586C77.751 42.6406 79.1459 43.9231 80.8667 43.9231Z" fill="#3F3D56"/>
<path d="M108.389 16.2324C110.11 16.2324 111.505 14.9499 111.505 13.3679C111.505 11.7858 110.11 10.5033 108.389 10.5033C106.668 10.5033 105.273 11.7858 105.273 13.3679C105.273 14.9499 106.668 16.2324 108.389 16.2324Z" fill="#3F3D56"/>
<path d="M135.912 5.7291C137.633 5.7291 139.028 4.4466 139.028 2.86455C139.028 1.2825 137.633 0 135.912 0C134.191 0 132.796 1.2825 132.796 2.86455C132.796 4.4466 134.191 5.7291 135.912 5.7291Z" fill="#3F3D56"/>
<path d="M161.143 98.7369H0.243052C0.17859 98.7369 0.116769 98.7134 0.071188 98.6715C0.025607 98.6296 0 98.5727 0 98.5135C0 98.4542 0.025607 98.3974 0.071188 98.3555C0.116769 98.3136 0.17859 98.29 0.243052 98.29H161.143C161.208 98.29 161.27 98.3136 161.315 98.3555C161.361 98.3974 161.386 98.4542 161.386 98.5135C161.386 98.5727 161.361 98.6296 161.315 98.6715C161.27 98.7134 161.208 98.7369 161.143 98.7369Z" fill="#CBCBCB"/>
<path d="M201.247 136.948H122.498C122.433 136.948 122.372 136.924 122.326 136.882C122.28 136.84 122.255 136.784 122.255 136.724C122.255 136.665 122.28 136.608 122.326 136.566C122.372 136.524 122.433 136.501 122.498 136.501H201.247C201.311 136.501 201.373 136.524 201.419 136.566C201.464 136.608 201.49 136.665 201.49 136.724C201.49 136.784 201.464 136.84 201.419 136.882C201.373 136.924 201.311 136.948 201.247 136.948Z" fill="#CBCBCB"/>
<path d="M150.676 95.1049C150.876 94.9223 151.03 94.7016 151.127 94.4584C151.224 94.2152 151.262 93.9554 151.238 93.6973C151.214 93.4392 151.129 93.1891 150.989 92.9645C150.848 92.74 150.656 92.5465 150.425 92.3976L151.381 88.4448L148.91 87.325L147.645 92.9246C147.399 93.2974 147.31 93.7403 147.395 94.1694C147.48 94.5984 147.734 94.9838 148.108 95.2526C148.481 95.5213 148.949 95.6548 149.423 95.6275C149.896 95.6003 150.342 95.4144 150.676 95.1049Z" fill="#FFB7B7"/>
<path d="M177.7 95.1916C177.884 94.9953 178.018 94.7643 178.095 94.515C178.171 94.2656 178.187 94.0039 178.141 93.7482C178.096 93.4926 177.99 93.2493 177.831 93.0354C177.672 92.8215 177.464 92.6423 177.221 92.5103L177.841 88.5013L175.283 87.5607L174.494 93.2334C174.28 93.6226 174.229 94.0705 174.35 94.4922C174.471 94.9139 174.756 95.2802 175.151 95.5215C175.546 95.7629 176.024 95.8626 176.493 95.8018C176.963 95.741 177.392 95.5239 177.7 95.1916L177.7 95.1916Z" fill="#FFB7B7"/>
<path d="M158.436 134.537L155.916 134.537L154.718 125.601L158.437 125.602L158.436 134.537Z" fill="#FFB7B7"/>
<path d="M159.079 136.783L150.954 136.783V136.688C150.954 135.917 151.287 135.178 151.88 134.633C152.473 134.087 153.277 133.781 154.116 133.781H154.116L159.079 133.781L159.079 136.783Z" fill="#2F2E41"/>
<path d="M166.864 134.537L164.344 134.537L163.145 125.601L166.864 125.602L166.864 134.537Z" fill="#FFB7B7"/>
<path d="M167.506 136.783L159.381 136.783V136.688C159.381 135.917 159.714 135.178 160.307 134.633C160.9 134.087 161.705 133.781 162.543 133.781H162.544L167.506 133.781L167.506 136.783Z" fill="#2F2E41"/>
<path d="M171.937 59.3564L174.655 58.455C174.655 58.455 175.808 58.6801 175.808 61.5556C175.808 64.4311 178.871 91.2489 178.871 91.2489L173.51 92.5464L170.481 67.1031L171.937 59.3564Z" fill="#2F2E41"/>
<path d="M153.78 59.3564L151.062 58.455C151.062 58.455 149.909 58.6801 149.909 61.5556C149.909 64.4311 146.846 91.2489 146.846 91.2489L152.207 92.5464L155.236 67.1031L153.78 59.3564Z" fill="#2F2E41"/>
<path d="M153.815 89.9423L153.072 110.087L154.716 132.371L158.953 132.461L159.57 111.674L163.064 101.281L162.712 131.915L167.509 131.862L170.481 110.786C170.481 110.786 174.405 93.3438 172.229 89.9423L162.207 86.8785L153.815 89.9423Z" fill="#2F2E41"/>
<path d="M153.896 87.5149L153.655 92.3609C153.655 92.3609 157.036 93.9079 162.979 92.9655C168.922 92.0232 172.873 92.6444 172.873 92.6444L172.416 86.4669L153.896 87.5149Z" fill="#E5E5E5"/>
<path d="M150.955 58.5265L158.77 55.3781L159.236 53.7291L166.838 53.9316L167.167 55.6162L174.655 58.455L171.356 69.0014L171.694 76.4205L175.808 89.9423C175.808 89.9423 172.338 92.6517 164.001 91.486L162.563 88.8211L161.683 91.6393C161.683 91.6393 154.373 94.1117 152.347 90.8932L153.815 67.6436L150.955 58.5265Z" fill="#2F2E41"/>
<path d="M162.968 52.18C165.756 52.18 168.016 50.102 168.016 47.5387C168.016 44.9753 165.756 42.8973 162.968 42.8973C160.18 42.8973 157.919 44.9753 157.919 47.5387C157.919 50.102 160.18 52.18 162.968 52.18Z" fill="#FFB7B7"/>
<path d="M168.966 45.7402C168.876 45.3625 168.702 45.0058 168.456 44.6922C168.358 43.8251 168.043 42.9906 167.537 42.2536C167.338 41.9083 167.056 41.6093 166.713 41.3795C166.32 41.1712 165.871 41.0683 165.417 41.0825C165.335 41.0812 165.187 41.1041 165.053 41.1097C164.968 41.0855 164.882 41.0638 164.796 41.0434C164.746 40.9405 164.646 40.6404 164.618 40.6607L164.242 40.9354C164.083 40.9101 163.923 40.8903 163.763 40.8746C163.704 40.7214 163.646 40.5683 163.588 40.4151C163.493 40.5521 163.41 40.6956 163.339 40.8444C163.179 40.8372 163.02 40.8347 162.86 40.8369L162.54 40.5546C162.521 40.6333 162.478 40.7053 162.415 40.7617C162.353 40.8181 162.274 40.8564 162.188 40.8721C162.04 40.886 161.894 40.9041 161.748 40.9257C161.736 40.9256 161.724 40.9257 161.712 40.9254C160.925 40.9074 160.078 40.8749 159.42 41.2722C159.112 41.4666 158.861 41.7283 158.69 42.0336C158.61 42.084 158.529 42.134 158.451 42.1874C158.187 42.3529 157.958 42.5615 157.776 42.8028C157.643 43.0108 157.542 43.2348 157.477 43.4683C157.226 44.171 157.109 44.9085 157.133 45.6478C157.16 46.3922 157.465 47.1052 157.998 47.6665C158.335 48 158.764 48.2462 159.103 48.5793C159.799 49.2651 159.929 50.2216 160.524 50.9473C161.154 51.7148 162.303 52.2198 163.313 52.3646C163.919 52.4487 164.538 52.4217 165.134 52.2852C165.729 52.1486 166.289 51.9053 166.782 51.569C167.019 51.4176 167.22 51.2239 167.373 50.9996C167.723 50.4425 167.575 49.7423 167.705 49.11C167.949 47.9249 169.179 46.9303 168.966 45.7402Z" fill="#2F2E41"/>
<path d="M25.6552 41.2378L25.365 40.8794L53.3441 21.7286L80.7776 40.5413L108.587 12.7828L108.636 12.764L135.625 2.52327L135.81 2.93644L108.872 13.1582L80.8382 41.1404L53.3439 22.2859L25.6552 41.2378Z" fill="#3F3D56"/>
</g>
<defs>
<clipPath id="clip0_11_575">
<rect width="203" height="137" fill="white"/>
</clipPath>
</defs>
</svg>
