<svg width="278" height="228" viewBox="0 0 278 228" fill="none" xmlns="http://www.w3.org/2000/svg">
<g clip-path="url(#clip0_11_613)">
<path d="M239.582 20.9648L6.64209 81.992L12.812 101.034L245.752 40.0064L239.582 20.9648Z" fill="#6C63FF"/>
<path d="M34.4717 169.456L0.138187 63.4963C-0.116352 62.7107 -0.0133982 61.8664 0.424384 61.1491C0.862165 60.4317 1.59892 59.9001 2.47257 59.6712L229.765 0.12333C230.639 -0.104781 231.577 -0.0118918 232.375 0.381617C233.173 0.775127 233.764 1.4371 234.019 2.22223L264.436 96.0953L263.495 96.3419L233.078 2.46886C232.895 1.90828 232.473 1.43571 231.903 1.15468C231.334 0.873642 230.663 0.807055 230.039 0.969513L2.74679 60.5174C2.12275 60.6809 1.5965 61.0607 1.2838 61.573C0.971095 62.0854 0.897557 62.6885 1.07936 63.2497L35.4128 169.21L34.4717 169.456Z" fill="#6C63FF"/>
<path d="M214.129 96.5321C213.44 96.5315 212.769 96.33 212.217 95.958C211.665 95.5859 211.263 95.0632 211.069 94.4681L205.31 76.6959C205.075 75.9665 205.171 75.1829 205.577 74.517C205.984 73.8512 206.667 73.3575 207.478 73.1442L227.243 67.9661C228.054 67.7545 228.925 67.8409 229.666 68.2063C230.406 68.5718 230.955 69.1864 231.193 69.9154L236.951 87.6876C237.186 88.417 237.09 89.2006 236.684 89.8665C236.278 90.5323 235.594 91.026 234.784 91.2393L215.019 96.4174C214.73 96.4934 214.43 96.532 214.129 96.5321Z" fill="#6C63FF"/>
<path d="M33.9412 63.8246C33.882 63.642 33.8116 63.4625 33.7303 63.2869C33.1777 62.0809 32.1489 61.101 30.8416 60.5356C29.5343 59.9702 28.0408 59.8591 26.648 60.2237C25.2551 60.5884 24.0613 61.403 23.2959 62.511C22.5304 63.6191 22.2474 64.9424 22.5011 66.2267C22.5367 66.4141 22.5842 66.5995 22.6432 66.782C23.0012 67.8806 23.7452 68.8454 24.764 69.5319C25.7828 70.2183 27.0215 70.5896 28.2946 70.59C28.8504 70.5911 29.4035 70.5199 29.9366 70.3785C31.433 69.9853 32.695 69.0746 33.4457 67.846C34.1964 66.6174 34.3746 65.1712 33.9412 63.8246ZM29.6621 69.5323C28.4142 69.8579 27.0736 69.7253 25.9342 69.1635C24.7949 68.6017 23.9498 67.6565 23.5843 66.5352C23.5269 66.3526 23.481 66.1672 23.4469 65.9799C23.2631 64.9217 23.5142 63.8396 24.1532 62.9358C24.7923 62.032 25.7756 61.3684 26.9192 61.0692C28.0628 60.77 29.2885 60.8556 30.3671 61.31C31.4456 61.7644 32.3032 62.5565 32.7794 63.5382C32.8682 63.7105 32.942 63.8888 33.0001 64.0715C33.3618 65.1936 33.2134 66.399 32.5876 67.4229C31.9617 68.4467 30.9096 69.2054 29.6621 69.5323V69.5323Z" fill="#6C63FF"/>
<path d="M19.515 67.6018C19.2013 66.6332 19.2314 65.6007 19.6012 64.6481C19.9709 63.6956 20.6618 62.8705 21.5777 62.2877C20.7196 62.2501 19.864 62.3975 19.0821 62.7174C18.3001 63.0374 17.6146 63.5207 17.0824 64.1272C16.5503 64.7336 16.187 65.4456 16.0229 66.2039C15.8588 66.9621 15.8985 67.7447 16.1388 68.4863C16.3791 69.228 16.8131 69.9072 17.4044 70.4676C17.9958 71.0279 18.7275 71.453 19.5386 71.7076C20.3498 71.9621 21.2167 72.0387 22.0674 71.9309C22.9181 71.8231 23.7279 71.5342 24.4292 71.088C23.3085 71.0388 22.2329 70.6765 21.352 70.0516C20.4712 69.4267 19.829 68.5704 19.515 67.6018Z" fill="#6C63FF"/>
<path d="M171.885 89.445C171.781 89.1077 171.603 88.7922 171.363 88.5166C171.123 88.241 170.825 88.0106 170.486 87.8387C170.147 87.6667 169.773 87.5566 169.387 87.5146C169 87.4726 168.608 87.4995 168.233 87.5939L135.692 95.7784L132.188 96.6599H154.195L157.7 95.7784L169.831 92.7285C170.587 92.5375 171.228 92.0844 171.613 91.4688C171.998 90.8532 172.096 90.1253 171.885 89.445Z" fill="#CCCCCC"/>
<path d="M148.863 83.3319C148.65 82.6517 148.147 82.075 147.462 81.7287C146.777 81.3824 145.967 81.2948 145.211 81.4852L96.382 93.7643C95.6997 93.9381 95.1089 94.3254 94.7161 94.8563C94.3233 95.3873 94.1545 96.0269 94.24 96.66H106.881L110.39 95.7785L146.809 86.6198C147.566 86.4282 148.207 85.9743 148.592 85.3579C148.977 84.7414 149.074 84.0128 148.863 83.3319Z" fill="#CCCCCC"/>
<path d="M274.569 95.7774H37.8251C36.9154 95.7784 36.0433 96.1037 35.4001 96.6821C34.7569 97.2605 34.3951 98.0447 34.394 98.8626V224.915C34.395 225.733 34.7568 226.517 35.4001 227.095C36.0433 227.674 36.9154 227.999 37.8251 228H274.569C275.479 227.999 276.351 227.674 276.994 227.095C277.637 226.517 277.999 225.733 278 224.915V98.8626C277.999 98.0447 277.637 97.2605 276.994 96.6821C276.351 96.1037 275.479 95.7784 274.569 95.7774ZM277.02 224.915C277.02 225.499 276.761 226.06 276.302 226.473C275.842 226.886 275.219 227.118 274.569 227.118H37.8251C37.1752 227.118 36.552 226.886 36.0924 226.473C35.6329 226.06 35.3746 225.499 35.3743 224.915V98.8626C35.3746 98.2782 35.6329 97.7179 36.0925 97.3046C36.552 96.8914 37.1752 96.6592 37.8251 96.6589H274.569C275.219 96.6592 275.842 96.8914 276.302 97.3046C276.761 97.7179 277.02 98.2782 277.02 98.8626V224.915Z" fill="#6C63FF"/>
<path d="M60.8606 112.967C59.6973 112.967 58.5601 112.657 57.5928 112.076C56.6256 111.495 55.8717 110.669 55.4265 109.702C54.9813 108.736 54.8648 107.673 55.0918 106.647C55.3187 105.621 55.8789 104.678 56.7015 103.939C57.5241 103.199 58.5721 102.695 59.7131 102.491C60.8541 102.287 62.0367 102.392 63.1115 102.792C64.1862 103.192 65.1049 103.87 65.7512 104.74C66.3975 105.61 66.7424 106.632 66.7424 107.678C66.7406 109.081 66.1204 110.425 65.0177 111.417C63.915 112.408 62.42 112.966 60.8606 112.967ZM60.8606 103.271C59.8912 103.271 58.9435 103.53 58.1374 104.014C57.3314 104.498 56.7032 105.186 56.3322 105.992C55.9612 106.797 55.8641 107.683 56.0533 108.538C56.2424 109.393 56.7092 110.179 57.3947 110.795C58.0802 111.411 58.9535 111.831 59.9043 112.001C60.8551 112.171 61.8407 112.084 62.7363 111.75C63.632 111.417 64.3975 110.852 64.936 110.127C65.4746 109.402 65.7621 108.55 65.7621 107.678C65.7606 106.51 65.2438 105.39 64.3249 104.563C63.406 103.737 62.1601 103.272 60.8606 103.271Z" fill="#6C63FF"/>
<path d="M51.718 107.678C51.7181 106.67 52.0683 105.686 52.7195 104.864C53.3708 104.043 54.2909 103.424 55.3515 103.095C54.5394 102.843 53.672 102.77 52.8218 102.88C51.9716 102.991 51.163 103.282 50.4634 103.731C49.7639 104.179 49.1936 104.771 48.8002 105.458C48.4067 106.145 48.2014 106.906 48.2014 107.678C48.2014 108.451 48.4067 109.212 48.8002 109.899C49.1936 110.586 49.7639 111.178 50.4634 111.626C51.163 112.075 51.9716 112.366 52.8218 112.477C53.672 112.587 54.5394 112.513 55.3515 112.262C54.2909 111.932 53.3708 111.314 52.7195 110.493C52.0683 109.671 51.7181 108.687 51.718 107.678Z" fill="#6C63FF"/>
<path d="M84.7034 170.166C83.5338 170.165 82.4125 169.746 81.5855 169.003C80.7585 168.259 80.2933 167.251 80.292 166.199V154.299C80.292 153.247 80.7567 152.238 81.584 151.494C82.4113 150.751 83.5334 150.333 84.7034 150.333C85.8733 150.333 86.9954 150.751 87.8227 151.494C88.65 152.238 89.1147 153.247 89.1147 154.299V166.199C89.1134 167.251 88.6482 168.259 87.8212 169.003C86.9942 169.746 85.8729 170.165 84.7034 170.166Z" fill="#6C63FF"/>
<path d="M96.467 170.166C95.2975 170.165 94.1762 169.746 93.3492 169.003C92.5222 168.259 92.057 167.251 92.0557 166.199V154.299C92.0557 153.247 92.5204 152.238 93.3477 151.494C94.175 150.751 95.2971 150.333 96.467 150.333C97.637 150.333 98.759 150.751 99.5863 151.494C100.414 152.238 100.878 153.247 100.878 154.299V166.199C100.877 167.251 100.412 168.259 99.5849 169.003C98.7579 169.746 97.6366 170.165 96.467 170.166Z" fill="#6C63FF"/>
<path d="M108.23 170.166C107.061 170.165 105.94 169.746 105.113 169.003C104.286 168.259 103.82 167.251 103.819 166.199V154.299C103.819 153.247 104.284 152.238 105.111 151.494C105.938 150.751 107.061 150.333 108.23 150.333C109.4 150.333 110.522 150.751 111.35 151.494C112.177 152.238 112.642 153.247 112.642 154.299V166.199C112.641 167.251 112.175 168.259 111.348 169.003C110.521 169.746 109.4 170.165 108.23 170.166Z" fill="#6C63FF"/>
<path d="M126.366 170.166C125.197 170.165 124.075 169.746 123.248 169.003C122.421 168.259 121.956 167.251 121.955 166.199V154.299C121.955 153.247 122.42 152.238 123.247 151.494C124.074 150.751 125.196 150.333 126.366 150.333C127.536 150.333 128.658 150.751 129.486 151.494C130.313 152.238 130.778 153.247 130.778 154.299V166.199C130.776 167.251 130.311 168.259 129.484 169.003C128.657 169.746 127.536 170.165 126.366 170.166Z" fill="#6C63FF"/>
<path d="M138.13 170.166C136.96 170.165 135.839 169.746 135.012 169.003C134.185 168.259 133.72 167.251 133.719 166.199V154.299C133.719 153.247 134.183 152.238 135.011 151.494C135.838 150.751 136.96 150.333 138.13 150.333C139.3 150.333 140.422 150.751 141.249 151.494C142.076 152.238 142.541 153.247 142.541 154.299V166.199C142.54 167.251 142.075 168.259 141.248 169.003C140.421 169.746 139.299 170.165 138.13 170.166Z" fill="#6C63FF"/>
<path d="M149.894 170.166C148.724 170.165 147.603 169.746 146.776 169.003C145.949 168.259 145.484 167.251 145.482 166.199V154.299C145.482 153.247 145.947 152.238 146.774 151.494C147.602 150.751 148.724 150.333 149.894 150.333C151.064 150.333 152.186 150.751 153.013 151.494C153.84 152.238 154.305 153.247 154.305 154.299V166.199C154.304 167.251 153.838 168.259 153.011 169.003C152.184 169.746 151.063 170.165 149.894 170.166Z" fill="#6C63FF"/>
<path d="M168.029 170.166C166.859 170.165 165.738 169.746 164.911 169.003C164.084 168.259 163.619 167.251 163.618 166.199V154.299C163.618 153.247 164.082 152.238 164.91 151.494C165.737 150.751 166.859 150.333 168.029 150.333C169.199 150.333 170.321 150.751 171.148 151.494C171.976 152.238 172.44 153.247 172.44 154.299V166.199C172.439 167.251 171.974 168.259 171.147 169.003C170.32 169.746 169.199 170.165 168.029 170.166Z" fill="#6C63FF"/>
<path d="M179.793 170.166C178.623 170.165 177.502 169.746 176.675 169.003C175.848 168.259 175.383 167.251 175.381 166.199V154.299C175.381 153.247 175.846 152.238 176.673 151.494C177.501 150.751 178.623 150.333 179.793 150.333C180.963 150.333 182.085 150.751 182.912 151.494C183.739 152.238 184.204 153.247 184.204 154.299V166.199C184.203 167.251 183.738 168.259 182.911 169.003C182.084 169.746 180.962 170.165 179.793 170.166Z" fill="#6C63FF"/>
<path d="M191.556 170.166C190.387 170.165 189.266 169.746 188.439 169.003C187.612 168.259 187.146 167.251 187.145 166.199V154.299C187.145 153.247 187.61 152.238 188.437 151.494C189.264 150.751 190.386 150.333 191.556 150.333C192.726 150.333 193.848 150.751 194.676 151.494C195.503 152.238 195.968 153.247 195.968 154.299V166.199C195.966 167.251 195.501 168.259 194.674 169.003C193.847 169.746 192.726 170.165 191.556 170.166Z" fill="#6C63FF"/>
<path d="M209.692 170.166C208.523 170.165 207.401 169.746 206.574 169.003C205.747 168.259 205.282 167.251 205.281 166.199V154.299C205.281 153.247 205.746 152.238 206.573 151.494C207.4 150.751 208.522 150.333 209.692 150.333C210.862 150.333 211.984 150.751 212.811 151.494C213.639 152.238 214.104 153.247 214.104 154.299V166.199C214.102 167.251 213.637 168.259 212.81 169.003C211.983 169.746 210.862 170.165 209.692 170.166Z" fill="#6C63FF"/>
<path d="M221.456 170.166C220.286 170.165 219.165 169.746 218.338 169.003C217.511 168.259 217.046 167.251 217.044 166.199V154.299C217.044 153.247 217.509 152.238 218.336 151.494C219.164 150.751 220.286 150.333 221.456 150.333C222.626 150.333 223.748 150.751 224.575 151.494C225.402 152.238 225.867 153.247 225.867 154.299V166.199C225.866 167.251 225.401 168.259 224.574 169.003C223.747 169.746 222.625 170.165 221.456 170.166Z" fill="#6C63FF"/>
<path d="M233.219 170.166C232.05 170.165 230.929 169.746 230.102 169.003C229.275 168.259 228.809 167.251 228.808 166.199V154.299C228.808 153.247 229.273 152.238 230.1 151.494C230.927 150.751 232.05 150.333 233.219 150.333C234.389 150.333 235.511 150.751 236.339 151.494C237.166 152.238 237.631 153.247 237.631 154.299V166.199C237.63 167.251 237.164 168.259 236.337 169.003C235.51 169.746 234.389 170.165 233.219 170.166Z" fill="#6C63FF"/>
<path d="M114.612 214.314H51.166C50.3799 214.314 49.626 214.033 49.0701 213.533C48.5142 213.033 48.2019 212.355 48.2019 211.648C48.2019 210.942 48.5142 210.264 49.0701 209.764C49.626 209.264 50.3799 208.983 51.166 208.983H114.612C115.398 208.983 116.152 209.264 116.707 209.764C117.263 210.264 117.576 210.942 117.576 211.648C117.576 212.355 117.263 213.033 116.707 213.533C116.152 214.033 115.398 214.314 114.612 214.314Z" fill="#E6E6E6"/>
<path d="M94.2702 202.854H71.5073C70.7212 202.854 69.9673 202.574 69.4114 202.074C68.8555 201.574 68.5432 200.896 68.5432 200.189C68.5432 199.482 68.8555 198.804 69.4114 198.304C69.9673 197.805 70.7212 197.524 71.5073 197.524H94.2702C95.0563 197.524 95.8103 197.805 96.3661 198.304C96.922 198.804 97.2343 199.482 97.2343 200.189C97.2343 200.896 96.922 201.574 96.3661 202.074C95.8103 202.574 95.0563 202.854 94.2702 202.854Z" fill="#E6E6E6"/>
<path d="M276.843 122.125H35.1978V123.007H276.843V122.125Z" fill="#6C63FF"/>
</g>
<defs>
<clipPath id="clip0_11_613">
<rect width="278" height="228" fill="white"/>
</clipPath>
</defs>
</svg>
