<svg width="299" height="234" viewBox="0 0 299 234" fill="none" xmlns="http://www.w3.org/2000/svg">
<g clip-path="url(#clip0_3_149)">
<path d="M299 231.355H0V234H299V231.355Z" fill="#85848B"/>
<path d="M236.886 184.654C236.886 186.689 227.089 192.62 215.452 192.62C203.814 192.62 194.747 186.689 194.747 184.654C194.747 182.62 204.179 183.275 215.828 183.275C227.476 183.275 236.886 182.617 236.886 184.654Z" fill="#504F60"/>
<path opacity="0.2" d="M236.886 184.654C236.886 186.689 227.089 192.62 215.452 192.62C203.814 192.62 194.747 186.689 194.747 184.654" fill="black"/>
<path d="M119.691 147.323C121.579 147.616 123.539 147.802 125.348 147.092C125.633 146.985 125.946 146.747 125.918 146.402C125.898 146.277 125.854 146.159 125.79 146.057C125.108 144.819 124.535 143.498 124.081 142.116C124.063 142.044 124.026 141.981 123.975 141.937C123.916 141.911 123.852 141.911 123.793 141.937C122.958 142.202 122.237 142.854 121.408 143.133C120.986 143.273 120.545 143.313 120.109 143.25C119.733 143.199 119.221 142.823 118.879 142.871C119.072 144.378 119.545 145.785 119.691 147.323Z" fill="#6C63FF"/>
<path d="M155.411 143.506C156.656 142.471 157.947 141.385 158.682 139.788C158.734 139.693 158.765 139.582 158.77 139.468C158.757 139.355 158.721 139.248 158.664 139.157C157.964 137.81 157.063 136.632 156.007 135.685C155.455 136.156 154.957 136.713 154.525 137.34C154.212 137.74 153.346 138.374 153.337 138.985C153.337 139.33 153.668 139.73 153.822 140.019C154.03 140.392 154.226 140.771 154.414 141.157C154.522 141.347 155.511 143.43 155.411 143.506Z" fill="#6C63FF"/>
<path d="M127.094 151.94C127.117 152.295 127.036 152.649 126.867 152.94C126.734 153.102 126.569 153.221 126.388 153.285C123.747 154.43 120.69 153.002 118.055 154.13C117.514 154.361 117.001 154.695 116.457 154.916C115.809 155.152 115.139 155.296 114.463 155.344C113.532 155.451 112.594 155.52 111.66 155.551C110.95 155.611 110.237 155.536 109.546 155.326C109.201 155.219 108.878 155.026 108.599 154.758C108.32 154.49 108.09 154.154 107.925 153.771C107.782 153.428 107.753 153.032 107.845 152.664C107.887 152.538 107.946 152.422 108.019 152.319C108.198 152.077 108.408 151.871 108.64 151.709L109.612 150.95C110.067 150.561 110.562 150.243 111.084 150.006C111.469 149.854 111.876 149.788 112.267 149.661C113.631 149.178 114.674 147.868 115.643 146.609L116.964 144.902C117.088 144.714 117.245 144.562 117.423 144.457C117.606 144.383 117.801 144.361 117.993 144.392C119.277 144.503 120.517 145.006 121.596 145.854C121.872 146.104 122.17 146.317 122.485 146.488C123.26 146.854 124.254 146.578 124.969 146.116C125.308 145.895 125.234 145.771 125.377 145.378C125.519 144.985 125.867 144.733 126.169 145.092C126.26 145.216 126.324 145.365 126.357 145.526C126.642 146.664 126.533 147.888 126.533 149.081C126.525 149.268 126.544 149.455 126.59 149.633C126.663 149.813 126.75 149.984 126.85 150.144C126.87 150.186 126.888 150.23 126.904 150.275C127.078 150.803 127.143 151.374 127.094 151.94Z" fill="#514E7F"/>
<path d="M127.095 151.94C127.117 152.295 127.036 152.649 126.867 152.94C126.734 153.102 126.569 153.221 126.388 153.285C123.747 154.43 120.691 153.002 118.055 154.13C117.514 154.361 117.001 154.695 116.457 154.916C115.809 155.152 115.139 155.296 114.463 155.344C113.532 155.451 112.594 155.52 111.66 155.551C110.95 155.611 110.237 155.536 109.546 155.326C109.201 155.219 108.878 155.026 108.599 154.758C108.32 154.49 108.09 154.154 107.925 153.771C107.782 153.428 107.753 153.032 107.845 152.664C107.887 152.538 107.946 152.422 108.019 152.319C108.173 152.709 108.284 153.226 108.381 153.413C108.512 153.689 108.69 153.928 108.903 154.114C109.116 154.3 109.36 154.429 109.617 154.492C110.003 154.521 110.39 154.461 110.757 154.316C113.15 153.599 115.694 153.588 117.993 152.502C118.782 152.126 119.534 151.626 120.363 151.399C121.192 151.171 122.072 151.233 122.927 151.147C124.277 151.016 125.585 150.523 126.915 150.264C127.087 150.797 127.148 151.372 127.095 151.94Z" fill="#464353"/>
<path d="M161.459 143.295C161.334 144.509 160.698 145.554 160.001 146.44C159.303 147.326 158.513 148.123 157.958 149.144C157.274 150.409 156.967 151.978 156.078 153.047C155.737 153.436 155.353 153.766 154.938 154.03C154.473 154.362 153.982 154.636 153.471 154.847C152.144 155.361 150.714 155.244 149.326 155.12C148.876 155.114 148.43 155.01 148.01 154.813C147.819 154.695 147.636 154.559 147.463 154.406C147.115 154.146 146.823 153.792 146.608 153.371C146.503 153.142 146.474 152.874 146.526 152.619C146.605 152.339 146.741 152.088 146.922 151.888C147.234 151.495 147.569 151.13 147.925 150.795C148.412 150.414 148.852 149.95 149.229 149.416C149.461 148.994 149.632 148.528 149.734 148.037C149.935 147.176 150.059 146.292 150.101 145.399C150.1 144.805 150.15 144.214 150.252 143.633C150.463 142.723 151.021 141.909 150.959 140.968C150.933 140.833 150.943 140.692 150.987 140.564C151.053 140.464 151.146 140.395 151.249 140.368C151.684 140.158 152.144 140.028 152.611 139.985C152.845 139.965 153.08 140.009 153.299 140.113C153.518 140.216 153.715 140.378 153.876 140.585C154.069 140.868 154.198 141.274 154.482 141.385C154.624 141.431 154.772 141.439 154.915 141.406C155.616 141.319 156.357 141.212 156.91 140.664C157.165 140.387 157.37 140.048 157.513 139.67C157.655 139.292 157.731 138.883 157.736 138.468C157.736 138.154 157.619 137.826 158.021 137.778C158.323 137.73 158.562 138.123 158.716 138.364C159.271 139.264 159.841 140.206 160.049 141.302C160.13 141.264 160.216 141.244 160.303 141.243C160.48 141.242 160.656 141.292 160.814 141.39C160.972 141.487 161.108 141.63 161.211 141.806C161.438 142.25 161.526 142.779 161.459 143.295Z" fill="#514E7F"/>
<path d="M161.459 143.295C161.334 144.509 160.698 145.554 160 146.44C159.303 147.326 158.513 148.123 157.958 149.144C157.274 150.409 156.967 151.978 156.078 153.047C155.737 153.436 155.353 153.766 154.938 154.03C154.473 154.362 153.982 154.636 153.471 154.847C152.144 155.361 150.714 155.244 149.326 155.12C148.876 155.114 148.43 155.01 148.01 154.813C147.819 154.695 147.636 154.559 147.463 154.406C147.115 154.147 146.823 153.792 146.609 153.371C146.876 153.216 147.167 153.131 147.463 153.123C148.078 153.164 148.529 153.868 149.118 154.085C149.959 154.392 150.796 153.675 151.648 153.43C152.203 153.271 152.787 153.313 153.337 153.085C153.795 152.871 154.219 152.56 154.588 152.168C155.094 151.73 155.544 151.205 155.924 150.609C156.24 150.013 156.502 149.379 156.707 148.716C157.157 147.446 157.687 146.219 158.291 145.047C158.381 144.861 158.489 144.69 158.613 144.537C158.747 144.388 158.898 144.285 159.049 144.154C159.619 143.633 159.855 142.775 160.055 141.933C160.109 141.677 160.184 141.429 160.28 141.192C160.457 141.19 160.633 141.24 160.791 141.338C160.949 141.436 161.086 141.578 161.188 141.754C161.434 142.209 161.53 142.759 161.459 143.295Z" fill="#464353"/>
<path d="M101.723 35.7833C102.433 36.4264 103.016 37.2505 103.433 38.1971C103.832 39.1419 106.131 46.4731 105.997 47.5386C106.746 46.6248 109.7 46.4765 110.458 45.5627C110.774 45.18 112.48 43.2696 112.737 42.8248C112.993 42.3799 114.896 41.4454 115.104 40.9764C115.882 39.2902 109.589 32.9005 110.395 31.2349C110.44 31.1584 110.463 31.0665 110.461 30.9729C110.442 30.8942 110.406 30.8236 110.355 30.7694C109.84 30.1315 109.156 29.7349 108.535 29.2625C107.914 28.7901 107.316 28.1314 107.148 27.2625C106.555 27.5924 106.012 28.0374 105.538 28.5797C104.383 29.7774 103.249 30.9993 102.134 32.2453C101.698 32.7349 100.855 33.3867 100.652 34.0867C100.413 34.8384 101.308 35.3729 101.723 35.7833Z" fill="#A1616A"/>
<path d="M111.911 33.0695C110.945 33.8548 110.043 34.7484 109.216 35.7385C108.435 36.673 107.694 37.7557 107.506 39.0626C107.427 39.5764 107.438 40.0971 107.373 40.6178C107.088 42.8765 105.475 44.5317 104.763 46.6455C104.557 47.2979 104.405 47.9737 104.31 48.6628C104.11 49.969 104 51.2932 103.983 52.6215C103.965 53.9077 105.008 54.7939 105.39 55.9939C105.772 57.1939 105.874 58.4284 106.068 59.6595C106.432 61.9837 107.102 64.2251 107.777 66.4527C109.182 71.1493 113.734 84.1323 115.138 88.8323C119.443 87.5254 130.9 84.5219 134.712 81.7667C135.983 80.8495 125.895 70.501 127.254 69.7872C127.332 69.7726 127.406 69.7363 127.47 69.6812C127.534 69.6261 127.586 69.5538 127.623 69.4698C127.66 69.3859 127.681 69.2927 127.683 69.1975C127.685 69.1024 127.669 69.008 127.636 68.9217C126.277 61.7285 122.027 55.8181 120.098 48.8145C119.429 46.3834 118.226 44.3076 117.315 41.9972C116.489 39.904 116.047 37.5902 115.059 35.6005C114.872 35.1906 114.628 34.8231 114.338 34.5143C114.091 34.2855 113.825 34.09 113.543 33.9315C112.979 33.6005 112.455 33.4039 111.911 33.0695Z" fill="#514E7F"/>
<path d="M101.951 34.966C105.672 34.966 108.689 31.3148 108.689 26.8107C108.689 22.3067 105.672 18.6554 101.951 18.6554C98.2305 18.6554 95.2141 22.3067 95.2141 26.8107C95.2141 31.3148 98.2305 34.966 101.951 34.966Z" fill="#A1616A"/>
<path d="M108.805 30.6418C109.141 30.2669 109.563 30.0241 110.015 29.9453C110.467 29.8665 110.929 29.9555 111.338 30.2004C111.794 30.4866 112.193 31.066 112.09 31.6729L115.432 31.7349C115.964 31.7173 116.495 31.7764 117.016 31.9108C117.539 32.0488 118.007 32.4037 118.337 32.9143C118.377 32.9798 118.423 33.0591 118.491 33.0694C118.547 33.0705 118.601 33.0486 118.645 33.0074C119.159 32.6953 119.738 32.5753 120.309 32.6625C122.115 32.8039 123.784 33.897 125.2 35.2626C125.455 35.475 125.654 35.7736 125.77 36.1212C125.887 36.5798 125.747 37.1557 126.055 37.4833C126.055 41.2765 127.132 44.8213 127.849 48.5179C127.978 49.1766 128.499 49.7593 128.861 50.2766C129.308 50.85 129.673 51.5097 129.94 52.2283C130.55 54.1456 129.71 56.4008 130.302 58.325C130.553 59.1388 131.037 59.8078 131.442 60.5147C131.975 61.3309 132.312 62.3093 132.416 63.3423C132.442 63.8044 132.393 64.2699 132.416 64.7216C132.454 65.3429 132.55 65.9571 132.701 66.5527C132.944 67.6654 133.198 68.7769 133.464 69.8872C133.897 71.6804 134.461 73.6149 135.789 74.5701C132.584 75.2287 129.205 75.8735 126.152 74.5252C125.726 74.3493 125.321 74.1046 124.949 73.7976C123.847 72.8459 123.314 71.2183 122.838 69.6803C122.309 67.9562 121.77 66.201 121.662 64.3665C121.663 63.783 121.595 63.2024 121.46 62.6423C121.149 61.6423 120.32 61.0388 119.568 60.4836C118.719 59.9203 117.949 59.1962 117.289 58.3388C116.961 57.9069 116.71 57.3982 116.552 56.8443C116.393 56.2903 116.33 55.7028 116.366 55.118C116.423 54.5491 116.608 54.0008 116.625 53.4284C116.642 52.8559 116.432 52.2008 115.979 52.049C113.646 51.1939 112.532 47.849 112.013 44.9662C111.789 43.4762 111.689 41.9629 111.714 40.4489L111.683 37.5074C111.361 37.1529 111.102 36.7227 110.922 36.2431C110.741 35.7635 110.644 35.2445 110.634 34.7177C110.665 34.4104 110.661 34.0993 110.62 33.7936C110.507 33.4199 110.324 33.0833 110.085 32.8108C109.569 32.1709 109.138 31.4395 108.805 30.6418Z" fill="#464353"/>
<path d="M101.629 39.9661C101.553 40.8765 101.723 41.811 101.555 42.7041C101.49 43.0489 101.376 43.3937 101.293 43.7144C101.041 44.9999 101.15 46.3507 101.604 47.5524C102.057 48.7424 102.6 49.8793 103.225 50.949C103.436 51.3142 103.61 51.709 103.743 52.1249C103.851 52.5616 103.918 53.0115 103.943 53.4663C104.108 55.2924 104.372 57.1033 104.735 58.8871C105.054 60.4319 108.677 73.639 109.521 74.8632C109.674 75.1342 109.906 75.3251 110.17 75.3977C110.361 75.4063 110.55 75.359 110.723 75.2597L112.432 74.4666C112.577 74.4128 112.712 74.3236 112.828 74.2045C112.988 73.978 113.075 73.6889 113.073 73.3907C113.195 71.7079 109.563 58.4077 109.102 56.8181C107.706 52.018 105.848 47.3903 104.94 42.4213C104.686 41.042 104.552 38.9178 103.718 37.8178C103.373 37.3626 103.49 37.5557 103.077 37.7937C102.868 37.9033 102.666 38.0312 102.473 38.1764C102.231 38.3799 102.03 38.6462 101.884 38.9558C101.738 39.2654 101.651 39.6106 101.629 39.9661Z" fill="#464353"/>
<path d="M106.817 49.0731C107.276 52.0077 107.749 54.9353 108.219 57.8698L114.908 55.7491C114.962 54.9008 114.588 54.1146 114.338 53.3353C113.728 51.4835 113.714 49.4214 113.221 47.5179C112.848 46.0696 112.198 44.7386 111.848 43.2799C111.646 42.4316 111.543 41.5558 111.344 40.6971C111.13 39.8539 110.867 39.03 110.557 38.2316C110.182 37.0736 109.692 35.9748 109.099 34.9591C108.244 35.3453 107.333 35.7936 106.846 36.7281C106.596 37.2547 106.453 37.8457 106.43 38.4523C106.313 40.2695 106.857 42.0972 106.677 43.9041C106.493 45.6249 106.54 47.3706 106.817 49.0731Z" fill="#6C63FF"/>
<path d="M115.019 88.1082C115.395 89.8324 114.851 91.6462 114.406 93.3531C113.737 95.9242 113.281 98.5694 113.044 101.25C113.015 101.932 112.902 102.605 112.708 103.246C112.497 103.822 112.139 104.308 111.894 104.857C111.221 106.298 111.238 108.057 111.384 109.705C111.48 110.791 111.626 111.874 111.805 112.943C112.025 114.25 112.295 115.616 111.979 116.891C112.509 116.75 112.868 117.581 112.834 118.233C112.799 118.885 112.626 119.612 112.885 120.174C113.54 120.464 113.546 121.554 113.526 122.398C113.537 123.863 113.69 125.322 113.982 126.743C114.973 132.513 116.025 138.268 117.138 144.006C119.545 144.909 122.357 145.85 124.653 144.599C125.08 144.368 125.508 143.999 125.605 143.44C125.63 143.139 125.598 142.835 125.513 142.55L124.425 137.757C124.16 136.599 123.895 135.402 124.035 134.212C124.14 133.326 124.459 132.371 124.1 131.588C123.978 131.319 123.784 131.109 123.642 130.854C123.072 129.843 123.371 128.492 123.417 127.267C123.435 126.993 123.419 126.716 123.371 126.447C123.293 126.132 123.184 125.83 123.046 125.547C122.147 123.433 121.715 121.074 121.793 118.698C121.827 118.395 121.793 118.087 121.693 117.805C121.624 117.689 121.562 117.567 121.508 117.44C121.466 117.218 121.487 116.986 121.568 116.781C121.241 116.481 120.947 116.134 120.691 115.747C120.849 115.628 120.982 115.467 121.081 115.276C121.18 115.086 121.242 114.87 121.263 114.647C121.283 114.423 121.261 114.196 121.198 113.984C121.136 113.772 121.034 113.58 120.901 113.422C121.017 113.394 121.125 113.327 121.212 113.23C121.298 113.132 121.361 113.007 121.393 112.869C121.424 112.73 121.423 112.584 121.391 112.446C121.358 112.308 121.294 112.184 121.206 112.088C121.067 111.971 120.881 111.919 120.782 111.743C120.628 111.488 120.753 111.133 120.879 110.86L121.542 109.409C122.038 108.329 122.149 106.995 122.682 105.96C123.445 104.453 123.944 102.774 124.437 101.112L126.354 94.7083L127.644 96.0635C128.074 96.461 128.434 96.958 128.704 97.5256C128.888 98.0865 129.004 98.6765 129.049 99.2773C129.522 102.753 131.328 105.767 131.997 109.191C132.145 109.953 132.245 110.753 132.607 111.405C132.736 111.605 132.853 111.817 132.954 112.04C133.049 112.379 133.098 112.734 133.1 113.091C133.159 113.792 133.343 114.468 133.638 115.075C133.933 115.682 134.332 116.205 134.809 116.609C135.444 117.136 136.233 117.498 136.578 118.333C136.647 118.591 136.743 118.838 136.863 119.067C137.171 119.516 137.834 119.567 137.965 120.129C138.039 120.443 137.903 120.819 138.048 121.095C138.131 121.223 138.24 121.321 138.364 121.381L140.219 122.502C142.293 123.757 143.352 126.64 144.882 128.74C145.41 129.424 145.878 130.173 146.278 130.974C146.939 132.405 147.244 134.202 148.361 135.112C148.661 135.301 148.934 135.546 149.17 135.84C149.52 136.399 149.392 137.181 149.423 137.885C149.454 138.588 149.899 139.426 150.451 139.212C150.258 140.064 150.258 140.964 150.451 141.816C152.878 141.665 155.192 140.531 157.021 138.595C157.562 138.023 158.083 137.292 158.089 136.423C158.097 136.273 158.07 136.123 158.009 135.992C157.9 135.822 157.755 135.69 157.59 135.609C155.856 134.471 155.334 131.833 154.457 129.692C153.691 127.802 152.557 126.174 151.608 124.419C149.546 120.643 148.138 116.074 145.019 113.581C144.332 113.033 143.535 112.546 143.19 111.64C142.999 111.133 142.976 110.553 142.825 110.029C142.674 109.505 142.313 108.995 141.851 108.995C142.107 108.236 142.056 107.312 142.073 106.491C142.091 106.127 142.056 105.762 141.971 105.412C141.852 105.035 141.698 104.677 141.512 104.343C140.698 102.675 140.291 100.762 140.338 98.8256C140.361 97.829 140.506 96.8014 140.259 95.8497C140.133 95.3704 139.914 94.9324 139.763 94.4704C139.535 93.6331 139.415 92.7586 139.407 91.8772L139.236 88.5634C139.21 87.4597 139.092 86.3621 138.883 85.2875C138.313 82.715 137.743 71.939 135.792 70.7252C133.84 69.5114 130.487 77.8046 128.291 77.9667C127.319 78.0156 126.359 78.2399 125.442 78.6322C123.981 79.2943 122.756 80.5288 121.562 81.7357L117.523 85.8426C116.668 86.6944 115.962 87.5082 115.019 88.1082Z" fill="#464353"/>
<path d="M95.63 17.7554C96.5188 16.2864 98.0457 15.5071 99.5499 15.4416C101.054 15.3761 102.535 15.9485 103.883 16.7589C104.281 17.0326 104.706 17.2435 105.148 17.3865C105.86 17.5623 106.652 17.3278 107.296 17.7313C108.15 18.2796 108.316 19.6761 108.241 20.8348C108.167 21.9934 107.988 23.2796 108.498 24.2831C108.679 24.5693 108.843 24.87 108.991 25.1831C109.21 25.7797 109.082 26.4693 108.951 27.1004C108.617 26.7556 108.429 26.2349 108.133 25.8349C107.837 25.4348 107.321 25.1659 106.954 25.4659C106.586 25.7659 106.592 26.3107 106.572 26.8004C106.552 27.29 106.45 27.8763 106.068 28.0349C105.908 28.0788 105.742 28.0638 105.589 27.9919C105.437 27.92 105.306 27.7944 105.213 27.6314C104.561 26.6659 104.823 25.1245 104.176 24.1521C103.809 23.6003 103.196 23.3314 102.857 22.7521C102.589 22.2969 102.521 21.7175 102.288 21.2279C102.054 20.7382 101.51 20.3796 101.148 20.7175C101.025 20.8603 100.922 21.027 100.843 21.2106C100.618 21.6018 100.29 21.8895 99.9122 22.0271C99.5349 22.1648 99.1302 22.1444 98.7636 21.9693C98.4835 21.7611 98.1804 21.6021 97.8634 21.4969C97.6559 21.4843 97.4496 21.5422 97.2679 21.6641C97.0862 21.7859 96.9362 21.9669 96.835 22.1865C96.6305 22.6253 96.5318 23.1247 96.5501 23.6279C96.5501 24.3176 96.6527 25.0521 96.3279 25.6038C96.2044 25.8115 96.0498 25.9893 95.8721 26.128C95.3964 26.4969 94.7326 26.7452 94.2939 26.3245C94.1452 26.1569 94.0346 25.9458 93.9727 25.7115C93.9109 25.4771 93.8998 25.2275 93.9407 24.9866C94.0261 24.5066 94.1384 24.0342 94.2768 23.5727C94.5275 22.5038 94.1999 21.3003 94.4734 20.2934C94.7598 19.3866 95.1491 18.5324 95.63 17.7554Z" fill="#464353"/>
<path d="M99.2394 42.0834C99.1966 42.3347 99.2184 42.5959 99.302 42.8317C99.3867 42.9923 99.502 43.1259 99.6382 43.2213C100.596 43.9437 101.686 44.3711 102.812 44.4662C102.965 44.4694 103.115 44.5167 103.25 44.6041C103.518 44.8179 103.535 45.2938 103.436 45.6731C103.303 46.0309 103.234 46.4187 103.233 46.811C103.316 47.5317 104.022 47.8456 104.618 47.9524C105.453 48.08 106.367 48.0145 107.028 47.3835C107.476 46.8892 107.817 46.2701 108.022 45.58C109.657 41.0317 110.23 36.004 111.885 31.4694C112.01 31.1734 112.094 30.854 112.133 30.5246C112.15 30.3597 112.131 30.1921 112.077 30.0393C112.023 29.8865 111.936 29.754 111.825 29.6556C111.518 29.4246 111.039 29.5556 110.831 29.1935C110.728 29.0108 110.74 28.7625 110.649 28.5694C110.458 28.159 109.956 28.2246 109.615 27.9866C109.347 27.8142 109.162 27.459 108.862 27.3901C108.716 27.38 108.569 27.4116 108.434 27.4822C108.299 27.5528 108.179 27.6606 108.085 27.797C107.113 28.8935 106.603 30.4487 106.062 31.9177C105.236 34.1694 104.268 36.3413 103.168 38.4144C103.296 38.173 102.552 36.3454 102.262 36.2661C101.752 36.1419 101.1 37.2247 100.823 37.6282C99.9561 38.9008 99.4067 40.4462 99.2394 42.0834Z" fill="#6C63FF"/>
<path opacity="0.1" d="M109.589 28.3073C109.384 28.3115 109.183 28.3712 109 28.4823C108.817 28.5933 108.657 28.7527 108.532 28.9487C108.227 29.428 108.167 30.0625 108.09 30.6729C107.831 32.6066 107.261 34.46 106.413 36.1281" fill="black"/>
<path opacity="0.1" d="M111.042 29.6832C110.759 29.6908 110.483 29.7874 110.241 29.9633C109.999 30.1393 109.799 30.3886 109.66 30.6867C109.472 31.2291 109.354 31.8038 109.313 32.3901C109.068 33.69 108.597 34.9116 107.931 35.9729" fill="black"/>
<path d="M178.745 97.098V92.8152C178.745 89.6624 177.709 86.639 175.867 84.41C174.025 82.181 171.527 80.9288 168.923 80.9288H29.1941C26.5895 80.9288 24.0915 82.181 22.2495 84.41C20.4075 86.639 19.3723 89.6624 19.3716 92.8152V100.712L178.745 97.098Z" fill="#33323D"/>
<path d="M68.0654 75.908C68.0654 75.908 67.6666 105.86 72.0537 115.715C76.4407 125.571 78.3209 168.444 78.3209 168.444C78.3209 168.444 124.311 174.203 156.36 161.547C188.408 148.892 256.602 143.716 256.602 143.716L245.11 49.9593C245.11 49.9593 188.337 45.5524 156.041 64.1975C123.744 82.8426 68.0654 75.908 68.0654 75.908Z" fill="#8DD070"/>
<path opacity="0.1" d="M68.0654 75.908C68.0654 75.908 67.6666 105.86 72.0537 115.715C76.4407 125.571 78.3209 168.444 78.3209 168.444C78.3209 168.444 124.311 174.203 156.36 161.547C188.408 148.892 256.602 143.716 256.602 143.716L245.11 49.9593C245.11 49.9593 188.337 45.5524 156.041 64.1975C123.744 82.8426 68.0654 75.908 68.0654 75.908Z" fill="black"/>
<path d="M78.244 86.8495C78.244 86.8495 76.8054 111.564 80.4148 119.46C84.0241 127.357 84.1922 162.609 84.1922 162.609C84.1922 162.609 125.582 164.933 155.024 152.802C184.466 140.671 246.335 132.802 246.335 132.802L239.304 56.1284C239.304 56.1284 188.112 55.4905 158.234 72.5666C128.357 89.6427 78.244 86.8495 78.244 86.8495Z" fill="#8DD070"/>
<path opacity="0.1" d="M157.78 138.764C163.669 137.876 167.167 124.762 165.594 109.473C164.021 94.1843 157.972 82.51 152.083 83.3979C146.193 84.2858 142.695 97.3997 144.268 112.689C145.841 127.978 151.891 139.652 157.78 138.764Z" fill="black"/>
<path opacity="0.2" d="M213.985 4.28625C213.985 4.28625 158.83 21.1831 132.821 50.9249C106.811 80.6667 52.0582 94.7497 52.0582 94.7497C52.0582 94.7497 59.2713 123.402 65.9431 131.154C72.6149 138.905 85.269 179.016 85.269 179.016C85.269 179.016 130.499 167.409 157.79 143.45C185.081 119.491 248.685 89.2323 248.685 89.2323L213.985 4.28625Z" fill="black"/>
<path d="M51.2292 90.4599C51.2292 90.4599 58.4394 119.116 65.1055 126.867C71.7716 134.619 84.4315 174.727 84.4315 174.727C84.4315 174.727 129.667 163.123 156.961 139.164C184.255 115.205 247.853 84.9564 247.853 84.9564L213.153 0C213.153 0 158.001 16.8968 131.992 46.6386C105.982 76.3804 51.2292 90.4599 51.2292 90.4599Z" fill="#8DD070"/>
<path opacity="0.1" d="M51.2292 90.4599C51.2292 90.4599 58.4394 119.116 65.1055 126.867C71.7716 134.619 84.4315 174.727 84.4315 174.727C84.4315 174.727 129.667 163.123 156.961 139.164C184.255 115.205 247.853 84.9564 247.853 84.9564L213.153 0C213.153 0 158.001 16.8968 131.992 46.6386C105.982 76.3804 51.2292 90.4599 51.2292 90.4599Z" fill="black"/>
<path d="M63.6812 97.0945C63.6812 97.0945 68.5782 121.154 74.0164 127.326C79.4547 133.499 88.5451 166.982 88.5451 166.982C88.5451 166.982 128.525 153.816 153.471 131.333C178.418 108.85 235.313 78.4115 235.313 78.4115L209.187 8.02426C209.187 8.02426 160.305 26.428 136.196 53.7801C112.087 81.1322 63.6812 97.0945 63.6812 97.0945Z" fill="#8DD070"/>
<path opacity="0.1" d="M152.549 116.96C157.929 113.927 157.934 100.146 152.561 86.1795C147.188 72.2126 138.471 63.3485 133.091 66.381C127.711 69.4135 127.706 83.1943 133.079 97.1612C138.452 111.128 147.169 119.992 152.549 116.96Z" fill="black"/>
<path opacity="0.1" d="M182.517 101.301V220.269C182.517 221.62 182.297 222.958 181.87 224.206C181.443 225.454 180.817 226.588 180.027 227.544C179.238 228.499 178.301 229.256 177.269 229.773C176.238 230.29 175.133 230.556 174.016 230.555H27.8751C25.6218 230.554 23.4611 229.47 21.8681 227.541C20.275 225.612 19.3801 222.996 19.3801 220.269V89.3082C23.5678 91.191 23.5678 91.191 27.8751 91.0324H174.016C176.268 91.0324 178.428 92.1136 180.021 94.0389C181.615 95.9641 182.513 98.576 182.517 101.301Z" fill="black"/>
<path d="M182.517 102.815V221.783C182.516 224.511 181.62 227.127 180.026 229.056C178.432 230.985 176.271 232.069 174.016 232.069H27.8751C25.6218 232.068 23.4611 230.984 21.8681 229.055C20.275 227.126 19.3801 224.51 19.3801 221.783V90.8186C23.5678 92.6979 23.5678 92.6979 27.8751 92.5427H174.016C176.269 92.5427 178.429 93.6245 180.022 95.5504C181.616 97.4764 182.513 100.089 182.517 102.815Z" fill="#504F60"/>
<path opacity="0.1" d="M182.101 146.799V184.844H151.619C147.488 184.777 143.545 182.743 140.643 179.183C137.741 175.623 136.114 170.823 136.114 165.821C136.114 160.82 137.741 156.02 140.643 152.46C143.545 148.9 147.488 146.866 151.619 146.799H182.101Z" fill="black"/>
<path d="M182.517 145.785V183.837H152.035C147.904 183.77 143.961 181.736 141.059 178.176C138.157 174.616 136.53 169.816 136.53 164.815C136.53 159.813 138.157 155.013 141.059 151.453C143.961 147.893 147.904 145.859 152.035 145.792L182.517 145.785Z" fill="#33323D"/>
<path opacity="0.1" d="M153.497 173.24C156.881 173.24 159.625 169.92 159.625 165.823C159.625 161.727 156.881 158.406 153.497 158.406C150.113 158.406 147.369 161.727 147.369 165.823C147.369 169.92 150.113 173.24 153.497 173.24Z" fill="black"/>
<path d="M153.913 172.234C157.297 172.234 160.04 168.913 160.04 164.816C160.04 160.72 157.297 157.399 153.913 157.399C150.529 157.399 147.785 160.72 147.785 164.816C147.785 168.913 150.529 172.234 153.913 172.234Z" fill="#6C63FF"/>
<path d="M235.427 145.457C235.669 148.633 233.684 151.716 234.262 154.826C234.387 155.492 234.624 156.12 234.709 156.792C234.949 158.64 234.04 160.389 233.171 161.933L225.707 175.189C225.408 175.771 225.05 176.307 224.642 176.782C223.217 178.32 221.075 178.161 219.201 178.62C217.883 178.944 216.639 179.61 215.554 180.572C215.509 180.619 215.48 180.685 215.474 180.757C215.467 180.828 215.484 180.9 215.52 180.958C215.83 181.468 216.24 181.877 216.714 182.146C217.188 182.416 217.71 182.537 218.232 182.499C218.429 182.813 218.232 183.272 217.947 183.496C217.545 183.841 216.996 183.923 216.916 184.744C216.888 185.031 216.935 185.32 217.053 185.572C217.353 186.129 217.821 186.524 218.357 186.672C220.941 187.627 223.733 185.948 225.667 183.661C227.602 181.375 228.989 178.489 230.886 176.161C231.937 174.875 233.131 173.772 234.214 172.523C236.373 170.034 238.051 167.006 239.672 163.975C240.159 163.061 240.649 162.123 240.854 161.064C241.059 160.006 240.962 158.937 241.193 157.913C241.495 156.568 242.307 155.499 242.982 154.371C244.307 152.164 245.19 149.464 245.016 146.747C244.842 144.03 243.449 141.343 241.33 140.419C240.673 140.1 239.948 140.047 239.264 140.268C238.396 140.592 237.755 141.461 237.162 142.292L235.738 144.275C235.382 144.71 235.102 145.225 234.911 145.792C234.82 146.076 234.799 146.387 234.849 146.686C234.9 146.985 235.02 147.26 235.196 147.478" fill="#FBBEBE"/>
<path opacity="0.05" d="M235.427 145.457C235.669 148.633 233.684 151.716 234.262 154.826C234.387 155.492 234.624 156.12 234.709 156.792C234.949 158.64 234.04 160.389 233.171 161.933L225.707 175.189C225.408 175.771 225.05 176.307 224.642 176.782C223.217 178.32 221.075 178.161 219.201 178.62C217.883 178.944 216.639 179.61 215.554 180.572C215.509 180.619 215.48 180.685 215.474 180.757C215.467 180.828 215.484 180.9 215.52 180.958C215.83 181.468 216.24 181.877 216.714 182.146C217.188 182.416 217.71 182.537 218.232 182.499C218.429 182.813 218.232 183.272 217.947 183.496C217.545 183.841 216.996 183.923 216.916 184.744C216.888 185.031 216.935 185.32 217.053 185.572C217.353 186.129 217.821 186.524 218.357 186.672C220.941 187.627 223.733 185.948 225.667 183.661C227.602 181.375 228.989 178.489 230.886 176.161C231.937 174.875 233.131 173.772 234.214 172.523C236.373 170.034 238.051 167.006 239.672 163.975C240.159 163.061 240.649 162.123 240.854 161.064C241.059 160.006 240.962 158.937 241.193 157.913C241.495 156.568 242.307 155.499 242.982 154.371C244.307 152.164 245.19 149.464 245.016 146.747C244.842 144.03 243.449 141.343 241.33 140.419C240.673 140.1 239.948 140.047 239.264 140.268C238.396 140.592 237.755 141.461 237.162 142.292L235.738 144.275C235.382 144.71 235.102 145.225 234.911 145.792C234.82 146.076 234.799 146.387 234.849 146.686C234.9 146.985 235.02 147.26 235.196 147.478" fill="black"/>
<path d="M241.076 227.217C239.447 228.421 237.416 228.493 235.521 228.214C235.216 228.169 234.855 228.141 234.667 228.428C234.382 228.841 234.718 229.462 235.065 229.783C236.183 230.798 237.496 231.452 238.88 231.683C240.116 231.895 241.363 231.995 242.612 231.983C246.03 232.055 249.449 232.124 252.813 231.531C253.012 231.513 253.206 231.445 253.383 231.331C253.6 231.147 253.75 230.869 253.804 230.555C254.035 229.493 253.591 228.355 252.918 227.617C252.246 226.879 251.383 226.469 250.54 226.072L247.577 224.676C246.882 224.348 245.768 223.479 245.013 223.548C243.594 223.672 242.253 226.383 241.076 227.217Z" fill="#3F3D56"/>
<path opacity="0.05" d="M241.076 227.217C239.447 228.421 237.416 228.493 235.521 228.214C235.216 228.169 234.855 228.141 234.667 228.428C234.382 228.841 234.718 229.462 235.065 229.783C236.183 230.798 237.496 231.452 238.88 231.683C240.116 231.895 241.363 231.995 242.612 231.983C246.03 232.055 249.449 232.124 252.813 231.531C253.012 231.513 253.206 231.445 253.383 231.331C253.6 231.147 253.75 230.869 253.804 230.555C254.035 229.493 253.591 228.355 252.918 227.617C252.246 226.879 251.383 226.469 250.54 226.072L247.577 224.676C246.882 224.348 245.768 223.479 245.013 223.548C243.594 223.672 242.253 226.383 241.076 227.217Z" fill="black"/>
<path d="M243.153 179.61C241.919 181.596 240.643 183.889 240.948 186.348C241.113 187.672 241.726 188.841 242.176 190.065C242.785 191.727 243.105 193.513 243.418 195.293C243.879 197.893 244.344 200.5 244.626 203.141C244.948 206.124 243.435 214.755 243.295 217.758C243.261 218.483 243.19 219.265 242.774 219.786C242.612 219.993 242.395 220.158 242.321 220.427C242.278 220.687 242.313 220.956 242.421 221.186C243.116 223.083 244.537 224.496 246.124 225.303C247.711 226.11 251.537 227.503 253.266 227.576C253.494 227.606 253.725 227.57 253.938 227.469C254.168 227.299 254.349 227.047 254.457 226.748C255.696 223.879 254.505 213.679 254.522 210.441C254.539 207.741 255.066 205.058 254.97 202.362C254.89 200.196 254.4 198.079 254.237 195.92C253.953 192.382 254.488 188.827 255.027 185.33C255.437 182.647 255.85 179.965 256.377 177.316C256.699 175.699 257.072 174.068 257.801 172.665C258.371 171.551 259.171 170.62 259.835 169.561C261.678 166.637 262.496 162.954 262.114 159.306C262.074 158.961 257.841 160.606 257.468 160.802C255.945 161.583 254.544 162.673 253.326 164.027C252.346 165.158 251.574 166.668 250.716 167.933C249.503 169.724 248.304 171.528 247.121 173.344C245.771 175.42 244.448 177.508 243.153 179.61Z" fill="#464353"/>
<path opacity="0.05" d="M243.153 179.489C241.919 181.475 240.643 183.772 240.948 186.227C241.113 187.554 241.726 188.723 242.176 189.948C242.785 191.606 243.105 193.396 243.418 195.172C243.879 197.775 244.344 200.382 244.626 203.02C244.948 206.006 243.435 214.634 243.295 217.638C243.261 218.362 243.19 219.148 242.774 219.669C242.612 219.872 242.395 220.038 242.321 220.307C242.277 220.566 242.313 220.835 242.421 221.065C243.116 222.965 244.537 224.376 246.124 225.203C247.711 226.031 251.537 226.752 253.266 226.821C253.494 226.851 253.725 226.814 253.938 226.714C254.169 226.546 254.35 226.295 254.457 225.996C255.696 223.127 254.505 213.582 254.522 210.341C254.539 207.638 255.066 204.958 254.97 202.258C254.89 200.093 254.4 197.975 254.237 195.82C253.953 192.279 254.488 188.723 255.027 185.227C255.437 182.548 255.85 179.865 256.377 177.213C256.699 175.596 257.072 173.965 257.801 172.561C258.371 171.447 259.171 170.516 259.835 169.458C261.678 166.534 262.497 162.85 262.114 159.202C262.074 158.857 257.841 160.502 257.468 160.699C255.946 161.482 254.545 162.573 253.326 163.927C252.346 165.054 251.574 166.565 250.716 167.83C249.503 169.621 248.304 171.426 247.121 173.244C245.771 175.304 244.448 177.385 243.153 179.489Z" fill="black"/>
<path d="M229.428 135.864C233.246 135.864 236.342 132.117 236.342 127.495C236.342 122.873 233.246 119.126 229.428 119.126C225.609 119.126 222.514 122.873 222.514 127.495C222.514 132.117 225.609 135.864 229.428 135.864Z" fill="#FBBEBE"/>
<path d="M235.655 127.143C236.294 128.377 237.131 129.442 238.117 130.275C239.104 131.108 240.218 131.691 241.395 131.992L240.874 134.285C239.974 138.223 238.962 142.388 236.45 145.119C236.735 143.785 236.37 142.361 235.749 141.202C235.128 140.043 234.256 139.133 233.402 138.233L229.422 134.061C229.307 133.947 229.21 133.809 229.137 133.654C229.039 133.359 229.039 133.031 229.137 132.736C229.644 130.826 231.091 129.633 232.271 128.343C232.862 127.676 233.391 126.931 233.846 126.123C234.641 124.75 235.134 126.129 235.655 127.143Z" fill="#FBBEBE"/>
<path d="M220.32 119.081L220.163 117.509C221.255 117.853 222.291 116.729 222.989 115.567C223.687 114.405 224.334 113.036 225.397 112.55C226.687 111.964 228.055 112.895 229.288 113.681C230.669 114.609 232.185 115.206 233.752 115.44C234.002 115.45 234.25 115.498 234.49 115.584C235.293 115.929 235.675 117.15 235.792 118.257C235.909 119.364 235.877 120.54 236.273 121.526C236.558 122.274 237.088 122.829 237.413 123.567C238.267 125.547 237.441 128.254 238.333 130.195L236.116 127.736C235.914 127.512 235.629 127.278 235.404 127.467C235.228 127.619 235.213 127.947 235.142 128.209C234.929 128.974 234.137 129.202 233.564 128.898C232.991 128.595 232.573 127.936 232.14 127.336C231.16 125.936 229.992 124.705 228.624 124.109C228.025 123.837 227.385 123.724 226.746 123.775C226.108 123.826 225.486 124.041 224.921 124.405C223.887 125.112 223.129 126.76 221.861 126.819C220.124 126.898 219.4 122.981 218.597 121.433C218.891 121.165 219.097 120.781 219.181 120.347C219.264 119.913 219.219 119.458 219.052 119.06C219.169 119.002 220.295 118.84 220.32 119.081Z" fill="#464353"/>
<path d="M134.803 70.1528C134.248 70.7509 133.734 71.4037 133.268 72.1045C132.798 72.8151 132.548 73.7017 132.561 74.6114C132.564 74.8753 132.633 75.1318 132.761 75.3459C132.826 75.4484 132.916 75.5238 133.018 75.5615C133.12 75.5992 133.229 75.5974 133.33 75.5563C133.445 75.4856 133.543 75.3813 133.615 75.2528C133.916 74.8149 134.236 74.3959 134.573 73.9976C134.695 73.8494 134.857 73.6942 135.023 73.7494C135.097 73.7812 135.163 73.8344 135.216 73.9045C135.408 74.1051 135.548 74.3686 135.618 74.6632C135.718 75.1908 135.464 75.7184 135.176 76.1322C134.889 76.546 134.55 76.9425 134.433 77.4632C134.389 77.6007 134.389 77.7533 134.433 77.8908C134.488 77.9903 134.565 78.0691 134.655 78.1184C135.063 78.3903 135.515 78.5503 135.98 78.5873C136.445 78.6242 136.911 78.5371 137.344 78.3322C137.914 78.0529 138.421 77.5736 139.008 77.3253C139.262 77.2411 139.508 77.1256 139.743 76.9804C139.911 76.8452 140.055 76.6711 140.167 76.468C140.279 76.265 140.357 76.0372 140.395 75.7977C140.469 75.3191 140.484 74.8297 140.438 74.3459C140.367 72.4726 140.036 70.6272 139.458 68.8872C139.425 68.775 139.368 68.6752 139.293 68.5976C139.207 68.5343 139.108 68.502 139.008 68.5045C138.279 68.4114 137.082 67.9596 136.379 68.2872C136.133 68.4505 135.92 68.6793 135.758 68.9562C135.627 69.1321 134.803 69.9217 134.803 70.1528Z" fill="#A1616A"/>
<path d="M134.573 69.3734C134.573 68.532 133.718 66.501 135.077 66.3665C135.077 65.4665 134.026 64.9078 134.222 63.9526C134.285 63.6354 134.507 63.3768 134.533 63.0526C134.618 62.1319 133.245 61.6319 133.473 60.7491C133.558 60.4043 133.86 60.2043 133.926 59.8629C134.08 59.0664 132.903 58.7112 132.88 57.8939C132.88 57.6181 133.009 57.3594 132.997 57.0836C132.997 56.7387 132.749 56.4767 132.613 56.1767C132.256 55.4077 132.43 54.218 131.781 53.8215C132.211 53.8663 132.35 53.0939 132.174 52.6214C131.997 52.149 131.635 51.7387 131.633 51.2145C131.654 51.0246 131.654 50.832 131.633 50.6421C131.513 50.1386 130.832 50.0973 130.718 49.6076C130.703 49.4197 130.699 49.2308 130.704 49.0421C130.658 48.6524 130.328 48.4041 130.017 48.2938C129.695 48.2275 129.384 48.0933 129.1 47.8972C128.901 47.7145 128.67 47.411 128.456 47.5524C128.376 47.611 128.337 47.7214 128.277 47.8041C128.02 48.1662 127.53 48.0076 127.208 47.7421C126.257 46.9593 125.784 45.5558 125.582 44.1868C125.38 42.8178 125.385 41.404 125.132 40.0488C125.054 39.6265 124.952 39.2116 124.824 38.8074C124.716 38.4626 124.368 37.9212 124.345 37.5729C124.294 36.7798 125.65 37.3212 126.166 37.4005C126.666 37.4597 127.161 37.5751 127.644 37.7454C128.16 37.9811 128.665 38.2493 129.157 38.5488C131.214 39.6488 133.698 39.7833 135.35 41.6316C135.894 42.2385 136.353 43.0351 137.06 43.311C137.384 43.3861 137.703 43.4863 138.017 43.611C138.8 44.0558 138.923 45.3144 139.35 46.2248C139.484 46.4652 139.601 46.719 139.7 46.9834C139.783 47.2953 139.821 47.6217 139.814 47.949L139.874 50.3386C139.971 54.3421 140.068 58.356 139.715 62.3354C139.601 63.6492 139.43 65.0009 139.752 66.263C139.837 66.6079 139.957 66.932 140.036 67.2803C140.107 67.6886 140.143 68.1045 140.145 68.5217L140.19 70.07C140.206 70.1904 140.184 70.3136 140.128 70.4148C140.08 70.4616 140.024 70.4949 139.965 70.5122C139.905 70.5295 139.843 70.5304 139.783 70.5148C138.002 70.3217 136.202 69.1079 134.521 69.8424" fill="#464353"/>
<path d="M215.825 188.341C227.461 188.341 236.894 186.69 236.894 184.654C236.894 182.619 227.461 180.968 215.825 180.968C204.188 180.968 194.755 182.619 194.755 184.654C194.755 186.69 204.188 188.341 215.825 188.341Z" fill="#504F60"/>
<path d="M233.951 184.834C233.581 182.913 233.35 181.227 233.35 181.227C233.35 181.227 233.436 179.137 232.661 177.568V177.044V173.182C232.882 172.481 233.151 171.803 233.467 171.158C234.037 169.944 233.467 165.496 233.467 165.496C233.467 165.496 231.339 159.223 231.855 155.244C232.37 151.264 227.485 137.574 227.485 137.574C227.515 136.254 227.669 134.942 227.943 133.664C227.996 133.395 228.017 133.119 228.006 132.843C228.006 132.809 228.006 132.778 228.006 132.743C228.006 132.709 228.006 132.764 228.006 132.774C227.932 130.15 226.217 125.233 226.217 125.233L226.448 115.86C226.448 115.86 227.542 110.343 225.758 102.912C225.135 100.322 224.736 98.2497 224.482 96.6497C224.454 96.4704 224.425 96.3049 224.402 96.129C228.074 95.4393 230.88 94.8876 230.88 94.8876C230.88 94.8876 228.75 84.0978 227.311 82.2081C225.872 80.3184 224.721 74.3839 224.721 74.3839C224.721 74.3839 223.972 66.7665 225.183 64.5389C226.394 62.3113 226.565 58.4698 226.565 58.4698C226.565 58.4698 229.325 56.056 229.673 54.9629C230.02 53.8698 230.593 51.4559 230.593 50.1766C230.593 48.8973 230.248 47.7628 230.362 47.0731C230.476 46.3834 229.556 43.8351 230.017 42.6213C230.137 42.2484 230.198 41.8522 230.2 41.4523C230.201 41.4409 230.201 41.4293 230.2 41.4178C230.204 40.3556 230.123 39.2955 229.957 38.2523C229.159 37.4361 228.227 36.8333 227.223 36.4833L227.163 36.1936L227.006 35.435C226.919 35.365 226.828 35.3006 226.736 35.2419V34.966L226.71 33.8695L227.143 31.4073C227.998 27.1245 223.271 26.4866 223.271 26.4866C222.985 25.8296 222.508 25.3238 221.933 25.0659C220.984 24.6624 221.776 31.5073 222.217 31.9625C222.551 32.3074 223.582 34.4384 224.08 35.4936L224.16 35.666C224.082 35.751 224.01 35.8432 223.944 35.9419L224.123 37.4281L224.152 37.6557C223.838 38.1265 223.584 38.6505 223.397 39.2109C223.397 39.2109 224.251 40.3558 224.089 41.6247C223.927 42.8937 224.354 44.5041 224.374 44.5903C224.323 44.5179 223.716 43.7248 223.109 43.9179C222.502 44.111 220.807 44.7282 220.807 44.7282C220.807 44.7282 219.542 44.9972 219.668 45.3351C219.793 45.6731 218.813 47.1559 218.813 47.1559L215.412 43.2524C215.378 43.1351 215.34 43.0179 215.312 42.9075C215.173 42.3447 215.078 41.7675 215.027 41.1834C215.398 41.0767 215.762 40.9373 216.115 40.7661C216.473 40.6176 216.795 40.3668 217.055 40.0351C217.4 39.542 217.466 38.873 217.605 38.2592C217.873 37.0592 218.46 35.9936 218.867 34.8522C219.557 32.9235 219.779 30.797 219.508 28.7211C219.456 28.0814 219.277 27.4663 218.987 26.928C218.431 26.0038 217.423 25.628 216.691 24.89C215.959 24.1521 215.486 23.0245 214.631 22.4762C213.859 21.9762 212.922 22.0348 212.05 22.2072C210.348 22.547 208.712 23.2674 207.227 24.3314C206.732 24.6762 206.185 25.1004 205.615 24.9728C205.125 24.8659 204.76 24.3934 204.453 23.9383C204.456 23.9194 204.461 23.901 204.467 23.8831C204.453 23.8663 204.44 23.8478 204.43 23.8279C204.069 24.7964 203.888 25.8486 203.9 26.9107C203.9 27.0763 203.9 27.2556 203.917 27.4038V27.5763C203.917 27.6245 203.917 27.6728 203.917 27.7176C203.917 27.7911 203.908 27.8643 203.891 27.9349C203.82 28.1458 203.711 28.3353 203.572 28.4901C203.468 28.6338 203.372 28.7872 203.287 28.9487C203.287 28.8935 203.316 28.8383 203.333 28.7797C203.116 29.1637 202.993 29.6146 202.98 30.0797C202.964 30.4183 203.056 30.7515 203.236 31.0108C203.407 31.2113 203.593 31.3914 203.792 31.5487C203.724 32.0039 203.69 32.4655 203.689 32.9281C203.695 34.2993 203.994 35.6453 204.556 36.836C205.118 38.0266 205.924 39.0216 206.897 39.7247C206.937 39.8385 206.974 39.9557 207.011 40.0695C207.447 41.4489 207.774 43.0696 207.629 44.5524C207.629 44.6593 207.603 44.7696 207.589 44.8765C207.575 44.9834 207.504 44.9903 207.467 45.0489C207.467 45.0489 201.846 45.1179 200.524 43.6696C199.202 42.2213 197.185 47.211 197.185 47.211C197.185 47.211 195.171 47.6835 194.767 47.211C194.362 46.7386 192.006 47.1455 192.006 47.1455C191.041 46.1064 189.785 45.5516 188.494 45.5938C187.711 44.8741 186.848 44.2935 185.93 43.8696L185.867 43.842C185.462 43.6632 185.029 43.5972 184.6 43.6489C184.6 43.6489 181.836 40.8903 181.03 39.4006C180.224 37.9109 176.387 32.4108 176.369 32.3867V32.1212L176.327 31.3211C176.213 31.3428 176.098 31.3543 175.982 31.3556C175.962 31.2763 175.934 31.1832 175.905 31.0763C175.684 30.296 175.412 29.5384 175.09 28.8108C175.09 28.8108 175.09 27.8004 175.333 27.5452C175.575 27.29 175.233 23.5831 175.233 23.5831C175.233 23.5831 172.743 16.5382 170.512 21.7969C170.512 21.7969 166.296 25.2004 169.834 29.1659C169.834 29.1659 171.259 29.9935 171.447 30.6487C171.578 31.0729 172.056 32.2625 172.378 33.0625L172.524 33.4074L172.484 33.4488L172.535 34.1108L172.558 34.366C171.891 34.8246 171.438 35.2798 171.549 35.6212C171.746 36.2054 171.881 36.8171 171.951 37.4419C171.951 37.4419 176.845 44.8627 177.478 48.0317C177.478 48.0317 190.602 57.4733 194.918 58.1457L194.154 62.8526C194.043 64.1299 193.986 65.4132 193.983 66.6975C194.04 67.7079 193.465 72.2942 193.465 72.2942C193.465 72.2942 192.716 79.0391 192.083 79.9839C191.451 80.9288 191.565 84.9737 191.565 84.9737C191.415 86.91 191.13 88.8274 190.71 90.7048C190.078 93.2669 190.536 96.4394 190.536 96.4394C190.536 96.4394 188.351 102.508 193.587 98.3946C193.587 98.3946 196.151 98.2014 199.12 98.0773C199.12 98.1945 199.12 98.3152 199.12 98.4221C199.12 98.8842 199.12 99.3842 199.1 99.9084C199.06 103.384 199.043 108.184 199.174 111.798C199.405 118.205 201.017 130.885 201.017 130.885V137.268C200.913 137.866 200.861 138.477 200.863 139.088C200.829 141.334 201.323 143.545 202.287 145.464L202.692 149.713C202.692 149.713 203.638 152.513 203.655 154.195C203.651 154.331 203.638 154.466 203.615 154.599C203.578 154.813 203.563 155.032 203.569 155.251C203.515 157.182 204.475 161.802 204.475 161.802C204.475 161.802 204.532 166.454 205.108 166.727C205.601 166.958 204.45 169.406 204.108 170.109C204.099 170.066 204.092 170.023 204.088 169.978L204.017 170.116C203.898 170.493 203.837 170.893 203.837 171.296C203.805 171.613 203.848 171.936 203.96 172.225C204.073 172.514 204.252 172.759 204.475 172.93C205.569 173.74 206.156 174.413 205.227 174.682C204.886 174.746 204.547 174.832 204.213 174.941C204.213 174.889 204.179 174.834 204.165 174.785C204.034 174.847 203.924 174.962 203.855 175.11C203.786 175.259 203.762 175.431 203.786 175.599C203.795 176.146 203.911 176.683 204.125 177.165C205.045 179.661 205.683 180.613 205.683 180.613L206.125 180.554C206.06 180.759 205.973 180.952 205.868 181.13C205.7 181.419 205.478 181.656 205.219 181.82C204.978 181.995 204.709 182.106 204.43 182.148C204.118 182.16 203.811 182.252 203.531 182.417C203.25 182.582 203.001 182.817 202.8 183.106C202.231 184.006 201.866 185.23 203 186.306L207.116 188.03C207.116 188.03 214.198 189.144 213.822 187.22C213.446 185.296 213.218 183.613 213.218 183.613C213.249 182.438 213.054 181.271 212.648 180.203C212.574 180.028 212.49 179.86 212.398 179.699L212.648 179.668C212.648 179.668 213.167 175.416 213.856 174.609C214.016 174.423 214.053 174.265 214.016 174.168C214.087 173.937 213.905 173.803 213.674 173.723L213.623 173.892C213.397 173.833 213.167 173.802 212.936 173.799C212.936 173.799 212.705 171.575 213.455 170.765C213.515 170.672 213.559 170.566 213.584 170.452C213.609 170.338 213.615 170.219 213.6 170.103C213.606 169.797 213.579 169.493 213.52 169.196C213.513 169.215 213.504 169.233 213.494 169.251C213.118 167.23 211.842 164.02 211.842 164.02C211.842 164.02 211.785 161.999 212.247 161.189C212.708 160.378 212.187 150.195 212.187 150.195C212.187 150.195 212.361 145.275 211.842 142.981C211.324 140.688 212.475 137.988 212.475 137.988C212.475 137.988 212.475 137.937 212.475 137.843V137.809L212.409 137.033C212.408 137.049 212.408 137.065 212.409 137.081C212.292 135.778 212.073 133.416 211.911 132.326C211.68 130.774 211.97 123.36 211.97 123.36L213.005 120.188L214.848 125.654L216.805 132.936C216.805 132.936 217.773 134.474 217.796 136.04C217.796 136.116 217.796 136.192 217.796 136.268C217.78 136.429 217.773 136.591 217.773 136.754C217.739 137.674 217.947 138.583 218.369 139.35C218.369 139.35 218.887 142.799 219.693 143.664C220.5 144.53 220.5 146.226 220.5 146.226C220.5 146.226 221.477 151.219 221.924 152.088C222.311 152.826 222.331 154.847 222.328 155.478C222.328 155.592 222.328 155.657 222.328 155.657C222.328 155.657 222.465 157.444 222.46 158.94C222.46 159.126 222.46 159.306 222.46 159.475C222.461 159.462 222.461 159.449 222.46 159.437C222.459 159.846 222.419 160.253 222.34 160.651L222.323 160.72C222.323 160.633 222.323 160.551 222.343 160.468C222.142 161.484 222.047 162.527 222.058 163.571C222.032 165.365 222.257 167.489 223.155 168.744C224.71 170.903 225.687 170.634 225.687 170.634C225.687 170.634 224.941 173.33 224.018 173.872C223.983 173.891 223.95 173.917 223.921 173.947C223.921 173.892 223.904 173.841 223.898 173.789C223.795 173.923 223.717 174.082 223.668 174.256C223.619 174.429 223.6 174.613 223.613 174.796C223.548 175.982 224.166 177.899 224.753 178.792C224.971 179.051 225.238 179.24 225.53 179.344C225.484 179.384 225.436 179.419 225.385 179.451C225.283 179.519 225.177 179.58 225.069 179.634C224.919 179.711 224.761 179.761 224.599 179.782C224.287 179.792 223.98 179.883 223.699 180.048C223.418 180.213 223.169 180.45 222.969 180.741C222.4 181.637 222.035 182.861 223.169 183.937L227.285 185.661C227.285 185.661 234.322 186.754 233.951 184.834Z" fill="url(#paint0_linear_3_149)"/>
<path d="M206.914 188.02L202.926 186.296C201.826 185.22 202.176 183.996 202.732 183.096C202.923 182.809 203.163 182.575 203.435 182.409C203.707 182.244 204.006 182.151 204.31 182.137C204.58 182.095 204.84 181.984 205.071 181.81C205.324 181.643 205.54 181.407 205.703 181.12C205.994 180.561 206.151 179.915 206.156 179.254C206.156 179.254 210.532 177.703 211.728 179.254C211.942 179.535 212.12 179.852 212.258 180.196C212.656 181.267 212.85 182.432 212.828 183.606C212.828 183.606 213.05 185.289 213.412 187.213C213.774 189.137 206.914 188.02 206.914 188.02Z" fill="#2D293D"/>
<path d="M226.411 185.641L222.423 183.916C221.323 182.841 221.673 181.616 222.229 180.72C222.419 180.432 222.658 180.197 222.93 180.031C223.202 179.866 223.5 179.774 223.804 179.761C223.962 179.742 224.116 179.692 224.26 179.613C224.365 179.559 224.468 179.498 224.568 179.43C225.682 178.689 225.653 176.868 225.653 176.868C225.653 176.868 230.026 175.316 231.225 176.868C231.386 177.078 231.526 177.31 231.644 177.558C232.393 179.127 232.311 181.22 232.311 181.22C232.311 181.22 232.533 182.906 232.88 184.827C233.228 186.748 226.411 185.641 226.411 185.641Z" fill="#2D293D"/>
<path opacity="0.1" d="M211.731 179.251C211.945 179.532 212.123 179.849 212.261 180.192L205.709 181.113C206 180.554 206.157 179.908 206.162 179.247C206.162 179.247 210.535 177.699 211.731 179.251Z" fill="black"/>
<path opacity="0.1" d="M231.65 177.565V179.051C230.63 181.082 225.699 180.637 224.266 179.62C224.371 179.566 224.474 179.505 224.573 179.437C225.687 178.696 225.659 176.875 225.659 176.875C225.659 176.875 230.032 175.323 231.231 176.875C231.391 177.085 231.532 177.317 231.65 177.565Z" fill="black"/>
<path d="M232.427 171.158C232.122 171.805 231.862 172.482 231.65 173.182V178.51C230.533 180.734 224.741 179.992 223.958 178.779C223.175 177.565 222.357 174.406 223.237 173.858C224.118 173.309 224.853 170.62 224.853 170.62C224.853 170.62 223.904 170.889 222.4 168.73C220.896 166.571 221.343 161.785 221.622 160.64C221.901 159.495 221.622 155.651 221.622 155.651C221.622 155.651 221.679 152.951 221.235 152.075C220.79 151.199 219.842 146.213 219.842 146.213C219.842 146.213 219.842 144.526 219.061 143.65C218.28 142.775 217.779 139.333 217.779 139.333C217.323 138.473 217.126 137.448 217.224 136.433C217.389 134.747 216.275 132.926 216.275 132.926L214.38 125.64L212.597 120.178L211.594 123.347C211.594 123.347 211.31 130.764 211.54 132.312C211.771 133.861 212.11 137.978 212.11 137.978C212.11 137.978 210.996 140.675 211.498 142.968C211.999 145.261 211.817 150.188 211.817 150.188C211.817 150.188 212.318 160.368 211.871 161.178C211.423 161.989 211.48 164.013 211.48 164.013C211.48 164.013 213.759 169.944 213.042 170.754C212.324 171.565 212.54 173.789 212.54 173.789C212.54 173.789 214.098 173.789 213.432 174.599C212.765 175.41 212.261 179.658 212.261 179.658L205.524 180.613C205.524 180.613 204.908 179.672 204.017 177.165C203.125 174.658 204.182 174.941 205.079 174.668C205.977 174.396 205.41 173.727 204.35 172.916C203.29 172.106 203.906 170.285 203.906 170.285C203.906 170.285 205.521 166.982 204.962 166.713C204.404 166.444 204.35 161.789 204.35 161.789C204.35 161.789 203.236 156.271 203.515 154.775C203.794 153.278 202.624 149.719 202.624 149.719L202.233 145.471C201.041 143.06 200.606 140.211 201.008 137.443V130.892C201.008 130.892 199.447 118.216 199.225 111.809C199.083 107.705 199.123 102.105 199.168 98.6118C199.197 96.6532 199.225 95.3531 199.225 95.3531L223.291 92.3186C223.291 92.3186 223.269 93.6634 223.727 96.6463C223.975 98.2463 224.36 100.319 224.964 102.908C226.69 110.326 225.633 115.853 225.633 115.853L225.408 125.229C225.408 125.229 227.525 131.499 227.08 133.657C226.812 134.939 226.661 136.253 226.63 137.574C226.63 137.574 231.365 151.264 230.863 155.244C230.362 159.223 232.422 165.496 232.422 165.496C232.422 165.496 232.986 169.944 232.427 171.158Z" fill="#464353"/>
<path opacity="0.05" d="M218.668 136.026L225.995 134.843C225.995 134.843 221.844 139.971 218.668 136.026Z" fill="black"/>
<path opacity="0.1" d="M224.935 126.178C224.935 126.178 225.186 129.316 223.599 130.495C223.599 130.495 226.439 129.957 224.935 126.178Z" fill="black"/>
<path opacity="0.1" d="M224.485 116.198C224.485 116.198 218.36 122.302 216.132 121.795C213.905 121.288 224.485 116.198 224.485 116.198Z" fill="black"/>
<path opacity="0.1" d="M209.586 138.888C209.586 138.888 204.934 140.168 204.794 142.43C204.655 144.692 209.586 138.888 209.586 138.888Z" fill="black"/>
<path opacity="0.05" d="M210.609 167.013C210.609 167.013 204.037 168.496 205.903 169.506C207.768 170.516 210.834 171.327 210.834 171.327C210.834 171.327 212.956 171.461 210.609 167.013Z" fill="black"/>
<g opacity="0.05">
<path opacity="0.05" d="M204.575 171.113C204.41 170.988 204.27 170.819 204.166 170.62C204.062 170.421 203.996 170.195 203.974 169.961L203.906 170.103C203.906 170.103 203.293 171.923 204.353 172.73C204.472 172.823 204.589 172.916 204.695 173.006C204.891 172.961 205.102 172.927 205.304 172.865C206.202 172.596 205.635 171.923 204.575 171.113Z" fill="black"/>
<path opacity="0.05" d="M213.042 170.571C213.224 170.371 213.218 169.854 213.107 169.192C212.822 169.713 212.74 170.527 212.734 171.144C212.803 170.93 212.908 170.735 213.042 170.571Z" fill="black"/>
<path opacity="0.05" d="M212.03 137.023C211.788 137.82 211.639 138.655 211.586 139.502C211.713 138.917 211.884 138.347 212.096 137.799L212.03 137.023Z" fill="black"/>
<path opacity="0.05" d="M227.083 133.485C227.126 133.242 227.146 132.995 227.142 132.747C227.06 133.25 227.003 133.716 226.961 134.126C226.997 133.916 227.037 133.716 227.083 133.485Z" fill="black"/>
<path opacity="0.05" d="M211.874 160.999C211.965 160.833 212.016 160.275 212.039 159.499C211.833 160.099 211.723 160.742 211.717 161.392C211.756 161.254 211.808 161.122 211.874 160.999Z" fill="black"/>
<path opacity="0.05" d="M213.241 173.716C212.896 175.069 212.639 176.453 212.475 177.854L205.737 178.796C205.737 178.796 205.122 177.854 204.23 175.347C204.158 175.154 204.095 174.956 204.039 174.754C203.635 174.978 203.47 175.485 204.005 176.965C204.897 179.461 205.515 180.413 205.515 180.413L212.252 179.468C212.252 179.468 212.754 175.22 213.42 174.409C213.762 174.02 213.552 173.816 213.241 173.716Z" fill="black"/>
<path opacity="0.05" d="M204.353 161.606C204.353 161.606 204.407 166.258 204.965 166.527C205.25 165.758 205.435 165.027 205.185 164.906C204.615 164.637 204.572 159.982 204.572 159.982C204.572 159.982 203.458 154.464 203.738 152.968C204.017 151.471 202.846 147.913 202.846 147.913L202.456 143.664C201.264 141.253 200.829 138.404 201.231 135.636V129.085C201.231 129.085 199.669 116.409 199.447 110.002C199.305 105.898 199.345 100.298 199.39 96.8049C199.39 96.1738 199.407 95.6152 199.416 95.1428L199.225 95.1669C199.225 95.1669 199.194 96.4635 199.168 98.4256C199.122 101.919 199.08 107.519 199.225 111.619C199.447 118.026 201.006 130.705 201.006 130.705V137.257C200.606 140.024 201.042 142.872 202.233 145.281L202.621 149.53C202.621 149.53 203.792 153.102 203.512 154.589C203.233 156.075 204.353 161.606 204.353 161.606Z" fill="black"/>
<path opacity="0.05" d="M224.186 176.978C223.639 176.019 223.274 174.925 223.118 173.775C222.431 174.527 223.22 177.444 223.972 178.603C224.75 179.816 230.544 180.558 231.664 178.33V177.047C230.146 178.851 224.921 178.127 224.186 176.978Z" fill="black"/>
<path opacity="0.05" d="M232.652 169.358C232.347 170.005 232.086 170.682 231.872 171.382V172.337C232 171.992 232.18 171.53 232.442 170.985C232.618 170.454 232.701 169.885 232.687 169.313C232.687 169.313 232.661 169.344 232.652 169.358Z" fill="black"/>
<path opacity="0.05" d="M224.528 170.423C224.74 169.904 224.923 169.368 225.078 168.82C225.078 168.82 224.129 169.089 222.625 166.93C221.531 165.361 221.468 162.395 221.625 160.458C221.34 161.606 220.898 166.392 222.403 168.551C223.385 169.961 224.129 170.334 224.528 170.423Z" fill="black"/>
<path opacity="0.05" d="M221.622 155.468C221.72 156.797 221.757 158.131 221.733 159.464C221.761 159.254 221.799 159.045 221.847 158.84C222.132 157.692 221.847 153.851 221.847 153.851C221.847 153.851 221.904 151.151 221.457 150.275C221.01 149.399 220.078 144.406 220.078 144.406C220.078 144.406 220.078 142.719 219.297 141.843C218.517 140.968 218.015 137.526 218.015 137.526C217.555 136.668 217.354 135.643 217.446 134.626C217.614 132.94 216.5 131.119 216.5 131.119L214.606 123.836L212.822 118.374L211.817 121.547C211.817 121.547 211.817 121.947 211.782 122.581L212.597 120.005L214.38 125.457L216.275 132.74C216.275 132.74 217.389 134.561 217.221 136.247C217.129 137.264 217.33 138.289 217.79 139.147C217.79 139.147 218.292 142.595 219.072 143.464C219.853 144.333 219.85 146.026 219.85 146.026C219.85 146.026 220.799 151.016 221.243 151.888C221.688 152.761 221.622 155.468 221.622 155.468Z" fill="black"/>
</g>
<path d="M226.3 31.397L225.881 33.8591L225.907 34.9557L225.924 35.7626L223.599 36.0523L223.34 35.4695C222.858 34.4143 221.858 32.2694 221.537 31.9384C221.106 31.5039 220.34 24.6555 221.252 25.0624C221.813 25.3248 222.274 25.8298 222.545 26.4797C222.545 26.4797 227.123 27.1142 226.3 31.397Z" fill="#FFCDD3"/>
<path opacity="0.1" d="M225.924 35.7626L223.599 36.0523L223.34 35.4695C223.652 35.0386 224.079 34.7523 224.546 34.6592C225.014 34.5662 225.494 34.6722 225.904 34.9591L225.924 35.7626Z" fill="black"/>
<path d="M226.51 37.0971L223.445 37.9557L223.38 37.404L223.206 35.9178C223.206 35.9178 224.42 33.9591 226.174 35.4281L226.328 36.1833L226.51 37.0971Z" fill="#6C63FF"/>
<path d="M176.857 31.666L173.583 33.7901L173.299 33.0453C172.988 32.2556 172.524 31.066 172.395 30.6315C172.202 29.9763 170.837 29.1487 170.837 29.1487C167.419 25.1866 171.492 21.7796 171.492 21.7796C173.652 16.5209 176.05 23.5659 176.05 23.5659C176.05 23.5659 176.387 27.2797 176.15 27.528C175.914 27.7763 175.914 28.7935 175.914 28.7935C176.226 29.5223 176.49 30.2799 176.703 31.0591C176.803 31.4349 176.857 31.666 176.857 31.666Z" fill="#FFCDD3"/>
<path opacity="0.1" d="M176.857 31.666L173.583 33.7901L173.299 33.0453C173.76 32.5763 175.398 30.9763 175.936 31.0418C176.193 31.0807 176.453 31.0888 176.711 31.066C176.803 31.435 176.857 31.666 176.857 31.666Z" fill="black"/>
<path d="M177.19 32.8626L173.512 35.0557L173.438 34.1005L173.387 33.4384C173.387 33.4384 175.518 31.228 176.147 31.3143C176.466 31.3701 176.789 31.3701 177.107 31.3143L177.15 32.1143L177.19 32.8626Z" fill="#6C63FF"/>
<path d="M217.386 47.7524C217.386 47.7524 201.353 49.9421 204.35 48.7628C206.435 47.9387 207.264 46.349 207.438 44.5558C207.58 43.0627 207.261 41.4523 206.843 40.073C206.466 38.8494 205.989 37.6745 205.418 36.5661C205.418 36.5661 217.668 28.4073 215.221 35.8247C214.844 36.9466 214.609 38.1314 214.526 39.3385C214.452 40.5381 214.559 41.744 214.842 42.8972C215.304 44.7685 216.185 46.4487 217.386 47.7524Z" fill="#FFCDD3"/>
<path opacity="0.1" d="M215.212 35.8143C214.835 36.9362 214.601 38.121 214.517 39.3282C213.363 40.5041 212.099 40.4248 210.472 40.4248C209.224 40.4248 207.84 40.7903 206.843 40.0627C206.466 38.839 205.989 37.6642 205.418 36.5557C205.418 36.5557 217.665 28.397 215.212 35.8143Z" fill="black"/>
<path d="M210.256 40.942C213.917 40.942 216.885 37.3494 216.885 32.9177C216.885 28.486 213.917 24.8935 210.256 24.8935C206.594 24.8935 203.626 28.486 203.626 32.9177C203.626 37.3494 206.594 40.942 210.256 40.942Z" fill="#FFCDD3"/>
<path opacity="0.1" d="M217.386 47.7524C217.386 47.7524 201.353 49.9421 204.35 48.7628C206.435 47.9386 207.264 46.3489 207.438 44.5558C208.236 43.5213 209.84 42.7523 210.857 42.3523C211.797 41.9696 212.812 41.9491 213.762 42.2937C214.136 42.43 214.492 42.6297 214.819 42.8868C215.286 44.765 216.175 46.4493 217.386 47.7524Z" fill="black"/>
<path opacity="0.1" d="M226.51 37.0971L223.445 37.9557L223.38 37.404C223.708 36.8583 224.167 36.4483 224.695 36.2299C225.222 36.0114 225.793 35.9952 226.328 36.1833L226.51 37.0971Z" fill="black"/>
<path opacity="0.1" d="M177.19 32.8626L173.512 35.0557L173.438 34.1005C174.629 33.3252 175.867 32.6601 177.142 32.1108L177.19 32.8626Z" fill="black"/>
<path opacity="0.1" d="M223.727 96.6531C217.514 97.8532 208.683 99.3842 207.281 98.867C206.116 98.4394 202.401 98.4842 199.168 98.6187C199.197 96.66 199.225 95.36 199.225 95.36L223.291 92.3255C223.291 92.3255 223.269 93.6703 223.727 96.6531Z" fill="black"/>
<path d="M229.92 94.8876C229.92 94.8876 209.475 99.1359 207.281 98.3359C205.088 97.5359 193.821 98.4015 193.821 98.4015C188.75 102.515 190.867 96.4463 190.867 96.4463C190.867 96.4463 190.422 93.2772 191.035 90.7151C191.446 88.834 191.727 86.9147 191.875 84.9771C191.875 84.9771 191.764 80.9288 192.377 79.9839C192.989 79.0391 193.716 72.2976 193.716 72.2976C193.716 72.2976 194.271 67.7113 194.217 66.701C194.163 65.6906 194.382 62.8561 194.382 62.8561L195.109 58.1353C190.929 57.4629 178.227 48.0214 178.227 48.0214C177.614 44.8524 172.88 37.435 172.88 37.435C172.811 36.8113 172.68 36.2 172.489 35.6143C172.156 34.535 177.17 32.3763 177.17 32.3763C177.17 32.3763 180.902 37.8937 181.682 39.3902C182.463 40.8868 185.135 43.6386 185.135 43.6386C185.55 43.5869 185.97 43.653 186.36 43.8317L186.426 43.8558C187.321 44.2814 188.161 44.8622 188.918 45.58C190.175 45.5439 191.393 46.1003 192.317 47.1317C192.317 47.1317 194.596 46.7248 194.992 47.1973C195.388 47.6697 197.331 47.1973 197.331 47.1973C197.331 47.1973 199.279 42.2075 200.561 43.6558C201.843 45.1041 207.281 45.0352 207.281 45.0352C208.005 43.8696 209.768 43.0351 210.871 42.6213C211.811 42.2402 212.826 42.2197 213.777 42.5627C214.187 42.7108 214.572 42.9442 214.916 43.2524L218.223 47.1628C218.223 47.1628 219.169 45.6765 219.058 45.3421C218.947 45.0076 220.172 44.7351 220.172 44.7351C220.172 44.7351 221.787 44.1282 222.4 43.9248C223.012 43.7213 223.573 44.5248 223.625 44.5972C223.605 44.511 223.186 42.8731 223.34 41.6317C223.494 40.3903 222.67 39.2178 222.67 39.2178C224.619 33.4177 229.02 38.273 229.02 38.273C229.02 38.273 229.522 41.442 229.077 42.6558C228.633 43.8696 229.522 46.4317 229.411 47.1076C229.299 47.7835 229.636 48.9283 229.636 50.2111C229.636 51.4939 229.066 53.918 228.744 54.9974C228.422 56.0767 225.736 58.5043 225.736 58.5043C225.736 58.5043 225.568 62.3492 224.397 64.5734C223.226 66.7975 223.961 74.4045 223.961 74.4045C223.961 74.4045 225.075 80.3391 226.468 82.2288C227.861 84.1185 229.92 94.8876 229.92 94.8876Z" fill="#3F3D56"/>
<path opacity="0.1" d="M200.117 50.5145C200.117 50.5145 199.504 48.2904 198.946 48.1007C198.392 47.8539 197.852 47.5612 197.331 47.2248L197.69 46.3938C197.69 46.3938 199.781 47.0834 200.117 47.8317C200.453 48.58 200.117 50.5145 200.117 50.5145Z" fill="black"/>
<path opacity="0.1" d="M188.918 45.5938C188.807 46.2834 183.847 46.8731 183.847 46.8731L186.354 43.8317L186.417 43.8593C187.316 44.2871 188.159 44.8714 188.918 45.5938Z" fill="black"/>
<path d="M174.572 36.8764C174.817 36.8764 175.016 36.6355 175.016 36.3385C175.016 36.0414 174.817 35.8005 174.572 35.8005C174.326 35.8005 174.128 36.0414 174.128 36.3385C174.128 36.6355 174.326 36.8764 174.572 36.8764Z" fill="#575988"/>
<path d="M175.142 37.9557C175.387 37.9557 175.586 37.7149 175.586 37.4178C175.586 37.1207 175.387 36.8799 175.142 36.8799C174.896 36.8799 174.697 37.1207 174.697 37.4178C174.697 37.7149 174.896 37.9557 175.142 37.9557Z" fill="#575988"/>
<path d="M175.7 38.9523C175.945 38.9523 176.144 38.7115 176.144 38.4144C176.144 38.1173 175.945 37.8764 175.7 37.8764C175.455 37.8764 175.256 38.1173 175.256 38.4144C175.256 38.7115 175.455 38.9523 175.7 38.9523Z" fill="#575988"/>
<path d="M176.284 40.0282C176.529 40.0282 176.728 39.7873 176.728 39.4902C176.728 39.1931 176.529 38.9523 176.284 38.9523C176.039 38.9523 175.84 39.1931 175.84 39.4902C175.84 39.7873 176.039 40.0282 176.284 40.0282Z" fill="#575988"/>
<path d="M228.798 39.8695C228.998 39.8695 229.16 39.6735 229.16 39.4316C229.16 39.1897 228.998 38.9937 228.798 38.9937C228.598 38.9937 228.436 39.1897 228.436 39.4316C228.436 39.6735 228.598 39.8695 228.798 39.8695Z" fill="#575988"/>
<path d="M228.855 40.8661C229.055 40.8661 229.217 40.67 229.217 40.4282C229.217 40.1863 229.055 39.9902 228.855 39.9902C228.655 39.9902 228.493 40.1863 228.493 40.4282C228.493 40.67 228.655 40.8661 228.855 40.8661Z" fill="#575988"/>
<path d="M228.903 41.8592C229.103 41.8592 229.265 41.6632 229.265 41.4213C229.265 41.1794 229.103 40.9834 228.903 40.9834C228.704 40.9834 228.542 41.1794 228.542 41.4213C228.542 41.6632 228.704 41.8592 228.903 41.8592Z" fill="#575988"/>
<path opacity="0.1" d="M200.137 68.7907C200.083 68.7114 212.643 87.9082 222.391 76.8149C222.4 76.8184 206.997 79.346 200.137 68.7907Z" fill="black"/>
<path opacity="0.1" d="M192.929 78.7701C192.929 78.7701 200.444 79.0184 201.231 81.6357V84.3599C201.017 84.5036 200.776 84.579 200.531 84.579C200.287 84.579 200.046 84.5036 199.832 84.3599C199.074 83.8633 194.53 81.0702 192.929 82.415V78.7701Z" fill="black"/>
<path d="M193.069 78.7701C193.069 78.7701 200.256 79.0081 201.008 81.5046V84.0978C200.804 84.2355 200.573 84.3077 200.339 84.3077C200.105 84.3077 199.874 84.2355 199.669 84.0978C198.946 83.6288 194.602 80.9633 193.069 82.246V78.7701Z" fill="#3F3D56"/>
<path opacity="0.1" d="M197.032 59.0181C197.799 61.1693 198.778 63.2011 199.946 65.0699C201.216 67.1355 202.756 68.9372 204.504 70.4045C204.504 70.4045 197.157 60.2664 197.032 59.0181Z" fill="black"/>
<path opacity="0.1" d="M194.573 48.449C194.573 48.449 195.827 55.0008 199.057 57.225L194.573 48.449Z" fill="black"/>
<path opacity="0.1" d="M192.65 49.1111C192.619 48.9904 191.536 54.2836 196.815 57.225C196.815 57.225 194.573 56.3043 192.65 49.1111Z" fill="black"/>
<path opacity="0.1" d="M225.465 44.7179C225.382 44.7179 228.069 46.7869 228.801 47.7524C228.801 47.7524 227.052 44.58 225.465 44.7179Z" fill="black"/>
<path d="M208.464 40.1902C208.465 40.3653 208.496 40.5382 208.555 40.698C208.614 40.8578 208.699 41.0011 208.806 41.1187C208.914 41.2364 209.04 41.3258 209.177 41.3815C209.314 41.4371 209.459 41.4577 209.603 41.442C211.623 41.5937 213.728 41.7006 215.585 40.7523C215.934 40.6018 216.247 40.3509 216.497 40.0213C216.828 39.5281 216.893 38.8592 217.027 38.2454C217.289 37.0454 217.847 35.9798 218.249 34.8384C218.929 32.91 219.156 30.7923 218.907 28.7176C218.855 28.0817 218.681 27.4691 218.4 26.928C217.865 26.0004 216.887 25.6245 216.178 24.8866C215.469 24.1486 215.013 23.021 214.184 22.4727C213.438 21.9693 212.523 22.0313 211.683 22.2038C210.03 22.5435 208.446 23.2634 207.016 24.3245C206.535 24.6693 206.008 25.0935 205.455 24.9659C204.971 24.8555 204.618 24.3624 204.316 23.9003C203.927 25.0038 203.764 26.2044 203.84 27.4004C203.861 27.5759 203.856 27.7545 203.826 27.928C203.756 28.1377 203.65 28.327 203.515 28.4832C203.017 29.1728 202.706 30.2935 203.199 31.0039C203.413 31.3108 203.743 31.4798 203.951 31.7936C204.324 32.3556 204.199 33.1729 204.19 33.8901C204.17 34.1406 204.222 34.3919 204.339 34.6005C204.446 34.7221 204.578 34.8079 204.722 34.8496C204.865 34.8913 205.015 34.8874 205.156 34.8384C205.438 34.7355 205.735 34.7015 206.028 34.7384C206.337 34.86 206.603 35.1027 206.786 35.4281C207.706 36.8798 208.07 38.4592 208.464 40.1902Z" fill="#2D293D"/>
<g opacity="0.1">
<path opacity="0.1" d="M216.734 39.4109C216.483 39.7405 216.17 39.9914 215.822 40.142C213.953 41.0834 211.851 40.9765 209.84 40.8316C209.624 40.8342 209.41 40.7764 209.216 40.6627C208.908 40.4454 208.791 39.9902 208.697 39.5764C208.304 37.8523 207.942 36.2695 207.008 34.8315C206.828 34.4998 206.561 34.2509 206.25 34.1246C205.957 34.0912 205.661 34.1251 205.378 34.2246C205.237 34.2741 205.087 34.2785 204.944 34.2374C204.801 34.1963 204.669 34.1112 204.561 33.9901C204.445 33.7815 204.392 33.5302 204.413 33.2798C204.413 32.5556 204.547 31.7453 204.173 31.1832C203.965 30.8694 203.635 30.7004 203.421 30.3901C203.282 30.1613 203.196 29.891 203.174 29.6081C203.151 29.3251 203.192 29.04 203.293 28.7832C202.937 29.4728 202.786 30.3384 203.199 30.9315C203.413 31.2384 203.743 31.4073 203.951 31.7211C204.324 32.2867 204.199 33.1005 204.19 33.8177C204.169 34.0678 204.22 34.3192 204.336 34.5281C204.444 34.6503 204.576 34.7364 204.72 34.7781C204.864 34.8198 205.014 34.8157 205.156 34.766C205.438 34.6631 205.735 34.6291 206.028 34.666C206.337 34.7876 206.603 35.0302 206.786 35.3557C207.717 36.7936 208.082 38.373 208.475 40.104C208.521 40.53 208.697 40.9198 208.968 41.1971C209.163 41.3111 209.378 41.3678 209.595 41.3627C211.614 41.5144 213.72 41.6247 215.577 40.673C215.926 40.5235 216.239 40.2724 216.489 39.942C216.614 39.7477 216.711 39.5283 216.773 39.2937C216.776 39.3385 216.756 39.3764 216.734 39.4109Z" fill="black"/>
<path opacity="0.1" d="M203.84 27.7176C203.93 27.6 203.998 27.4616 204.042 27.3107C204.068 27.1362 204.068 26.9576 204.042 26.7831C203.987 25.8 204.092 24.8133 204.353 23.8796L204.316 23.8279C203.926 24.9298 203.763 26.1296 203.84 27.3245C203.849 27.4554 203.849 27.5868 203.84 27.7176Z" fill="black"/>
</g>
<path opacity="0.1" d="M207.281 45.0524C207.281 45.0524 215.563 46.3834 216.306 44.8765L207.281 45.0524Z" fill="black"/>
<path opacity="0.1" d="M223.38 40.9041C223.38 40.9041 227.983 40.904 228.995 43.0006L223.38 40.9041Z" fill="black"/>
<path d="M249.135 227.165C247.77 228.643 245.996 229.446 244.164 229.414C243.697 229.414 243.05 229.521 243.048 230.086C243.059 230.252 243.106 230.411 243.184 230.548C243.762 231.715 244.675 232.583 245.748 232.986C246.745 233.352 247.811 233.29 248.85 233.224L251.884 233.034C252.454 232.997 253.024 232.962 253.594 232.876C254.163 232.79 254.784 232.648 255.38 232.531C256.843 232.279 258.322 232.196 259.798 232.283C260.191 232.3 260.653 232.283 260.886 231.938C261.12 231.593 261 230.934 260.912 230.417C260.73 229.352 260.912 228.234 260.744 227.165C260.459 225.29 259.117 223.852 257.647 223.172C256.28 222.545 253.859 221.824 252.565 222.872C251.201 223.972 250.366 225.81 249.135 227.165Z" fill="#3F3D56"/>
<path d="M252.149 164.316C252.417 165.858 253.651 167.037 253.685 168.609C253.716 169.871 252.973 170.93 252.437 172.009C251.932 173.127 251.506 174.295 251.164 175.499C250.155 178.635 248.904 181.649 247.426 184.499C246.714 185.879 245.916 187.351 246.079 188.955C246.192 189.704 246.411 190.425 246.725 191.086L248.862 196.224C249.33 197.249 249.696 198.339 249.953 199.468C250.138 200.444 250.155 201.455 250.263 202.448C250.6 205.6 251.822 208.772 251.098 211.827C251.035 212.089 250.813 212.407 250.639 212.224C251.346 213.82 251.913 215.427 251.859 217.238C251.83 218.186 251.591 219.176 251.879 220.058C252.001 220.427 252.215 220.772 252.212 221.169C252.212 221.431 252.112 221.676 252.089 221.931C252.03 222.658 252.582 223.265 253.155 223.496C253.728 223.727 254.351 223.71 254.93 223.921C256.041 224.324 256.836 225.483 257.778 226.286C258.746 227.093 259.886 227.542 261.06 227.579C261.228 227.601 261.397 227.56 261.545 227.462C261.628 227.373 261.695 227.264 261.742 227.142C261.788 227.019 261.812 226.886 261.812 226.752C261.864 226.108 261.784 225.458 261.579 224.86C261.374 224.263 261.051 223.735 260.639 223.324C260.458 223.187 260.308 222.997 260.203 222.772C260.15 222.573 260.136 222.362 260.163 222.155C260.335 219.329 260.293 216.489 260.038 213.672C259.922 212.779 259.885 211.874 259.926 210.972C259.986 210.22 260.174 209.476 260.106 208.727C260.038 207.979 259.721 207.296 259.536 206.575C259.206 205.293 259.297 203.913 259.251 202.572C259.194 200.241 258.753 197.951 258.314 195.675C258.14 194.782 257.949 193.848 257.428 193.186C256.984 192.624 256.266 192.086 256.434 191.337C256.527 191.061 256.666 190.812 256.841 190.603C257.048 190.289 257.199 189.928 257.286 189.542C257.373 189.155 257.394 188.751 257.348 188.355C257.536 188.412 257.734 188.39 257.909 188.29C258.084 188.191 258.225 188.021 258.308 187.81C261.778 185.827 264.576 181.861 265.823 177.465C265.897 177.138 266.01 176.827 266.159 176.541C266.481 175.996 267.04 175.761 267.535 175.461C269.091 174.513 270.165 172.737 271.151 170.999C271.72 169.992 272.29 168.951 272.546 167.765C272.681 166.997 272.745 166.214 272.737 165.43L272.826 161.378C272.845 161.111 272.824 160.843 272.763 160.585C272.678 160.345 272.555 160.127 272.401 159.944C271.454 158.731 270.209 157.919 268.852 157.626C267.94 157.43 267.008 157.468 266.085 157.375C264.296 157.195 262.53 156.523 260.741 156.685C257.929 156.937 255.425 159.295 254.101 162.309C253.636 163.371 253.146 164.296 252.149 164.316Z" fill="#464353"/>
<path d="M236.538 137.971C236.576 138.597 236.506 139.225 236.333 139.816C236.114 140.381 235.564 140.823 235.082 140.592C235.228 140.195 234.843 139.743 234.484 139.792C234.308 139.841 234.144 139.941 234.006 140.084C233.869 140.227 233.762 140.409 233.695 140.612C233.457 141.192 233.377 141.847 233.467 142.485C233.581 143.278 233.96 144.04 233.86 144.837C233.781 145.499 233.379 146.157 233.593 146.771C233.731 147.052 233.905 147.304 234.108 147.519C234.39 147.939 234.527 148.473 234.493 149.012C234.458 149.551 234.254 150.054 233.923 150.416L239.313 150.547C239.116 151.637 239.521 152.751 239.982 153.72C241.275 156.384 243.06 158.649 245.197 160.338C247.334 162.027 249.765 163.093 252.3 163.454C252.163 163.551 252.046 163.684 251.956 163.842C251.867 164.001 251.807 164.181 251.782 164.371C251.758 164.561 251.768 164.755 251.813 164.939C251.857 165.124 251.935 165.294 252.041 165.437C252.48 165.965 253.223 165.899 253.773 165.558C254.323 165.216 254.753 164.651 255.254 164.213C256.14 163.454 257.219 163.101 258.3 163.22C258.975 163.299 259.63 163.564 260.308 163.606C262.302 163.733 264.012 161.995 265.932 161.285C267.33 160.764 268.917 160.764 270.091 159.706C270.598 159.251 271.014 158.502 270.866 157.764C270.743 157.34 270.549 156.952 270.296 156.623C269.621 155.564 269.222 154.292 268.738 153.088C267.778 150.706 266.457 148.563 264.843 146.771C263.625 145.482 262.335 144.298 260.981 143.226C260.653 142.934 260.304 142.679 259.938 142.464C259.465 142.212 258.941 142.092 258.513 141.774C257.881 141.292 257.516 140.44 257.029 139.754C255.961 138.243 254.32 137.55 253.004 136.364C252.121 135.568 251.34 134.519 250.286 134.136C249.773 133.947 249.229 133.933 248.717 133.747C247.551 133.319 246.703 132.067 245.56 131.561C244.657 131.161 243.66 131.264 242.711 131.123C241.642 130.963 240.621 130.492 239.734 129.75C239.449 129.469 239.129 129.243 238.786 129.081C237.341 128.55 237.225 131.805 237.077 132.933C236.886 134.609 236.538 136.274 236.538 137.971Z" fill="#6C63FF"/>
<path d="M237.945 148.888C238.188 152.068 236.205 155.147 236.783 158.261C236.906 158.923 237.142 159.554 237.228 160.227C237.47 162.071 236.558 163.82 235.689 165.365L228.225 178.623C227.926 179.205 227.568 179.74 227.16 180.216C225.736 181.751 223.593 181.596 221.719 182.051C220.402 182.378 219.159 183.044 218.072 184.003C218.024 184.049 217.991 184.116 217.983 184.19C217.974 184.264 217.99 184.339 218.027 184.399C218.336 184.909 218.746 185.318 219.22 185.587C219.693 185.856 220.214 185.978 220.736 185.941C220.933 186.251 220.736 186.713 220.465 186.937C220.067 187.282 219.514 187.361 219.434 188.186C219.407 188.472 219.455 188.761 219.571 189.013C219.873 189.569 220.34 189.962 220.876 190.11C223.459 191.068 226.251 189.386 228.186 187.099C230.12 184.813 231.507 181.927 233.405 179.603C234.456 178.313 235.649 177.213 236.732 175.965C238.891 173.472 240.572 170.447 242.19 167.416C242.677 166.502 243.17 165.565 243.372 164.506C243.575 163.447 243.481 162.375 243.711 161.351C244.013 160.009 244.825 158.937 245.5 157.813C246.825 155.606 247.711 152.906 247.534 150.185C247.358 147.464 245.968 144.781 243.848 143.857C243.191 143.541 242.467 143.488 241.783 143.706C240.914 144.03 240.273 144.899 239.68 145.733L238.256 147.713C237.909 148.151 237.637 148.668 237.455 149.233C237.364 149.518 237.342 149.829 237.392 150.129C237.443 150.429 237.564 150.704 237.74 150.923" fill="#FBBEBE"/>
<path d="M241.729 135.847C240.749 135.916 239.669 136.033 238.977 136.881C238.686 137.271 238.451 137.716 238.282 138.199C237.609 139.857 236.954 141.592 236.906 143.44C236.866 144.916 237.219 146.361 237.404 147.819C237.558 149.033 237.168 150.271 237.094 151.499C238.31 151.047 239.917 150.433 241.019 149.671C241.771 149.15 242.498 148.557 243.318 148.226C244.489 147.754 246.452 148.571 247.566 149.226C247.626 148.281 247.039 146.633 247.101 145.685C247.11 145.286 247.169 144.89 247.275 144.512C247.442 144.113 247.639 143.733 247.865 143.378C248.289 142.543 248.484 141.568 248.422 140.591C248.36 139.614 248.044 138.686 247.52 137.94C246.532 136.595 244.985 136.092 243.509 135.871C242.58 135.741 241.643 135.701 240.709 135.754" fill="#6C63FF"/>
</g>
<defs>
<linearGradient id="paint0_linear_3_149" x1="201.185" y1="188.341" x2="201.185" y2="19.8348" gradientUnits="userSpaceOnUse">
<stop stop-color="#808080" stop-opacity="0.25"/>
<stop offset="0.54" stop-color="#808080" stop-opacity="0.12"/>
<stop offset="1" stop-color="#808080" stop-opacity="0.1"/>
</linearGradient>
<clipPath id="clip0_3_149">
<rect width="299" height="234" fill="white"/>
</clipPath>
</defs>
</svg>
